<?xml version="1.0" encoding="utf-8"?>
<svg version="1.1" id="svg2" width="1200px" height="1200px" viewBox="0 0 1200 1200" style="" xmlns="http://www.w3.org/2000/svg" xmlns:xlink="http://www.w3.org/1999/xlink">
	<image xlink:href="../data\imgs\front_page\IMG_20210523_200029.jpg" x="0" y="0" height="1200px" width="1200px"/>
  <g id="spirale_haut_tornade" class="white" style="transform-origin: 550px 350px; transform: scale(.95, .6) translateX(-20px)">
    <path d="M 740.79 738.216 C 473.509 611.452 858.208 773.558 987.626 532 C 987.664 532.011 916.513 571.539 869.152 559.143 C 925.247 506.981 1049.624 443.336 1016.373 211.631 C 885.433 480.766 1053.59 92.786 810.134 -35.191 C 910.804 248.115 751.944 -145.337 489.774 -63.918 C 475.856 -71.031 626.729 -12.382 574.71 2.377 C 519.739 -12.236 369.171 -31.539 242.902 142.287 C 242.902 142.287 314.054 102.76 361.376 115.146 C 305.234 167.336 180.926 230.938 214.155 462.659 C 340.921 195.379 178.815 580.078 420.37 709.498 C 420.362 709.535 380.832 638.382 393.227 591.023 C 445.463 647.14 509.071 771.447 740.79 738.216 Z" 
	style="
		back
		"/>
    <defs>
      <path d="M 740.79 738.216 C 473.509 611.452 858.208 773.558 987.626 532 C 987.664 532.011 916.513 571.539 869.152 559.143 C 925.247 506.981 1049.624 443.336 1016.373 211.631 C 885.433 480.766 1053.59 92.786 810.134 -35.191 C 910.804 248.115 751.944 -145.337 489.774 -63.918 C 475.856 -71.031 626.729 -12.382 574.71 2.377 C 519.739 -12.236 369.171 -31.539 242.902 142.287 C 242.902 142.287 314.054 102.76 361.376 115.146 C 305.234 167.336 180.926 230.938 214.155 462.659 C 340.921 195.379 178.815 580.078 420.37 709.498 C 420.362 709.535 380.832 638.382 393.227 591.023 C 445.463 647.14 509.071 771.447 740.79 738.216 Z" style="transform-origin: 612px 337px;transform-box : initial;transform: rotate(102deg);" id="spirale"/>
    </defs>
  </g>
</svg>