<?xml version="1.0" encoding="utf-8"?>
<svg version="1.1" id="svg2" width="1200px" height="1200px" viewBox="0 0 1200 1200" xmlns="http://www.w3.org/2000/svg">
  <g id="brainstorm_logo">
    <g id="lower_tornado">
      <path d="M 805.331 830.902 C 805.331 830.902 744.249 906.003 823.147 1086.883 C 823.147 1086.883 633.153 1130.875 504.047 968.935 C 504.047 968.935 525.407 978.816 543.257 975.627 C 543.257 975.627 452.724 958.095 418.616 874.574 C 418.616 874.574 446.986 883.819 453.361 877.126 C 453.361 877.126 412.248 869.076 376.854 830.902 L 805.331 830.902 Z" style="fill:#ffffff;fill-opacity:1;fill-rule:nonzero;stroke:none" id="path24"/>
      <path d="M 793.818 835.365 C 793.818 835.365 734.844 903.584 803.063 1065.207 C 803.063 1065.207 665.669 1093.259 551.546 974.035 C 551.546 974.035 588.207 973.078 590.119 965.427 C 590.119 965.427 499.584 955.546 460.055 881.27 C 460.055 881.27 490.34 893.064 514.567 878.72 C 514.567 878.72 450.811 869.476 420.209 835.365 L 793.818 835.365 Z" style="fill:#000000;fill-opacity:1;fill-rule:nonzero;stroke:none" id="path28"/>
      <path d="M 536.245 859.593 C 536.245 859.593 627.416 881.27 705.516 863.738 C 705.516 863.738 642.079 905.497 536.245 859.593" style="fill:#ffffff;fill-opacity:1;fill-rule:nonzero;stroke:none" id="path32"/>
      <path d="M 614.664 945.982 C 614.664 945.982 705.517 963.514 755.246 940.88 C 755.246 940.88 694.679 988.38 614.664 945.982" style="fill:#ffffff;fill-opacity:1;fill-rule:nonzero;stroke:none" id="path36"/>
    </g>
    <g id="outer_letters">
      <path d="M 908.53 805.858 L 946.419 656.324 C 946.708 655.177 947.742 654.373 948.923 654.373 L 1051.534 654.373 C 1051.534 654.373 1082.311 654.124 1073.938 690.399 L 1045.771 807.508 C 1045.494 808.67 1044.452 809.489 1043.259 809.489 L 1005.652 809.489 C 1003.984 809.489 1002.751 807.93 1003.14 806.305 L 1027.962 702.233 C 1027.962 702.233 1027.005 697.334 1024.735 702.233 L 999.272 807.121 C 998.993 808.28 997.954 809.097 996.76 809.097 L 959.451 809.097 C 957.763 809.097 956.527 807.503 956.949 805.868 L 984.122 700.363 C 984.122 700.363 983.351 695.261 980.529 700.148 L 953.143 806.709 C 952.854 807.841 951.837 808.637 950.669 808.65 L 911.062 809.077 C 909.366 809.094 908.113 807.501 908.53 805.858" style="fill:#ffffff;fill-opacity:1;fill-rule:nonzero;stroke:none" id="path40"/>
      <path d="M 812.678 807.085 L 851.368 654.205 C 851.455 653.855 851.77 653.611 852.132 653.611 L 911.133 653.611 C 911.133 653.611 939.703 653.611 936.159 679.236 C 936.154 679.266 936.15 679.298 936.142 679.328 L 925.874 723.872 C 925.874 723.872 923.195 743.661 904.631 749.237 C 904.209 749.365 903.937 749.782 904.017 750.216 L 914.462 807.16 C 914.55 807.642 913.77 809.048 913.283 809.053 L 870.645 809.053 C 868.982 809.07 867.437 807.402 867.129 805.767 L 865.534 797.262 C 865.379 796.44 864.22 796.393 863.998 797.197 L 861.007 807.989 C 860.909 808.334 860.562 809.058 860.205 809.053 L 813.105 809.053 C 812.595 809.048 812.553 807.58 812.678 807.085" style="fill:#ffffff;fill-opacity:1;fill-rule:nonzero;stroke:none" id="path44"/>
      <path d="M 725.4 789.381 L 753.016 677.489 C 753.016 677.489 761.384 653.611 783.937 653.611 L 820.647 653.611 C 820.647 653.611 848.652 656.176 840.28 688.965 L 817.089 781.85 C 817.089 781.85 812.052 810.257 793.739 809.054 L 742.733 809.054 C 742.733 809.054 721.695 806.954 725.4 789.381" style="fill:#ffffff;fill-opacity:1;fill-rule:nonzero;stroke:none" id="path48"/>
      <path d="M 656.282 802.772 L 682.854 697.731 C 683.274 696.071 682.025 694.452 680.312 694.44 L 671.333 694.373 C 669.6 694.36 668.346 692.707 668.803 691.034 L 678.364 655.962 C 678.679 654.811 679.728 654.012 680.921 654.017 L 749.684 654.222 C 751.347 654.227 752.593 655.75 752.269 657.38 L 745.197 692.897 C 744.952 694.13 743.871 695.022 742.612 695.024 L 730.784 695.059 C 729.583 695.062 728.536 695.873 728.234 697.034 L 699.505 807.114 C 699.198 808.296 698.124 809.11 696.905 809.09 L 660.967 809.09 C 658.008 809.04 655.558 805.639 656.282 802.772" style="fill:#ffffff;fill-opacity:1;fill-rule:nonzero;stroke:none" id="path52"/>
      <path d="M 557.083 755.148 L 592.66 755.505 C 595.102 755.528 596.995 757.653 596.715 760.077 C 596.275 763.925 595.978 768.8 597.344 768.58 C 597.344 768.58 601.212 772.533 602.271 753.602 C 602.348 752.182 601.262 750.946 599.841 750.868 L 560.362 748.706 C 558.729 748.616 557.593 747.043 558.02 745.464 L 577.527 673.425 C 577.527 673.425 580.778 653.611 607.15 653.611 L 639.558 653.611 C 639.625 653.611 639.693 653.608 639.763 653.603 C 641.563 653.446 670.287 651.328 664.674 677.011 L 658.428 705.556 C 658.166 706.754 657.097 707.598 655.871 707.578 L 618.999 706.949 C 617.408 706.924 616.24 705.471 616.527 703.905 C 617.216 700.149 617.895 694.346 615.181 695.66 C 615.181 695.66 613.917 691.921 610.714 708.797 C 610.417 710.358 611.588 711.833 613.176 711.871 L 652.455 712.815 C 653.724 712.845 654.605 714.081 654.223 715.289 L 638.611 785.915 C 638.611 785.915 635.949 808.749 616.897 809.091 L 565.731 809.091 C 565.571 809.091 564.694 809.121 564.537 809.091 C 561.813 808.564 536.684 801.397 554.656 756.771 C 555.051 755.79 556.025 755.138 557.083 755.148" style="fill:#ffffff;fill-opacity:1;fill-rule:nonzero;stroke:none" id="path56"/>
      <path d="M 450.441 805.455 L 487.985 655.189 C 488.272 654.042 489.296 653.236 490.477 653.223 L 541.952 652.682 C 541.952 652.682 580.755 651.548 568.919 686.335 L 538.162 805.612 C 537.832 806.9 536.299 809.103 534.968 809.103 L 497.034 809.103 C 495.996 809.103 494.695 806.82 494.954 805.814 L 522.895 696.975 C 522.895 696.975 522.537 694.106 521.461 697.215 L 493.306 805.282 C 492.922 806.766 491.394 809.103 489.863 809.103 L 452.406 809.103 C 451.178 809.103 450.144 806.646 450.441 805.455" style="fill:#ffffff;fill-opacity:1;fill-rule:nonzero;stroke:none" id="path60"/>
      <path d="M 403.55 805.37 L 440.023 655.693 C 440.32 654.47 441.417 653.611 442.673 653.611 L 482.596 653.611 C 483.757 653.611 484.606 654.702 484.324 655.825 L 446.645 805.694 C 446.283 807.133 445.414 809.103 443.931 809.103 L 405.863 809.103 C 404.412 809.103 403.206 806.781 403.55 805.37" style="fill:#ffffff;fill-opacity:1;fill-rule:nonzero;stroke:none" id="path64"/>
      <path d="M 311.584 809.104 C 309.891 809.104 308.003 806.547 308.418 804.906 L 340.84 676.632 C 340.84 676.632 344.097 653.612 372.399 653.612 L 403.483 653.612 C 403.578 653.612 403.66 653.607 403.753 653.597 C 406.067 653.319 441.579 649.709 427.885 690.918 C 427.87 690.971 427.852 691.023 427.84 691.076 L 399.463 805.55 C 399.225 807.044 397.732 809.104 396.221 809.104 L 358.445 809.104 C 356.754 809.104 355.219 806.549 355.628 804.909 L 367.562 757.359 C 367.562 757.359 367.572 753.875 365.697 757.344 L 353.051 806.192 C 352.754 807.341 351.421 809.104 350.237 809.104 L 311.584 809.104 Z" style="fill:#ffffff;fill-opacity:1;fill-rule:nonzero;stroke:none" id="path68"/>
      <path d="M 213.651 806.747 L 249.504 654.485 C 249.624 653.974 250.084 653.611 250.608 653.611 L 302.842 653.611 C 302.842 653.611 341.31 650.473 334.456 681.394 C 328.415 708.648 325.224 720.814 324.914 721.812 C 324.899 721.86 324.892 721.895 324.882 721.947 C 324.652 723.306 320.727 745.153 304.965 748.162 C 304.358 748.277 303.934 748.829 304.034 749.44 L 313.443 806.826 C 313.555 807.516 312.921 809.104 312.222 809.104 L 272.136 809.104 C 269.916 809.109 267.448 806.589 267.149 804.392 L 265.653 793.417 C 265.486 792.201 263.775 792.079 263.438 793.26 L 260.194 804.609 C 259.598 806.699 257.812 809.104 255.64 809.104 L 214.595 809.104 C 213.866 809.104 213.483 807.458 213.651 806.747" style="fill:#ffffff;fill-opacity:1;fill-rule:nonzero;stroke:none" id="path72"/>
      <path d="M 118.165 805.135 L 156.66 655.563 C 156.942 654.467 157.931 653.7 159.063 653.7 L 214.78 653.7 C 214.78 653.7 249.42 649.915 241.849 682.629 C 234.73 713.394 234.917 712.635 234.917 712.635 C 234.917 712.635 232.03 727.001 222.854 730.694 C 221.45 731.261 220.749 732.861 221.49 734.18 C 223.463 737.678 226.429 744.508 223.323 758.419 C 219.013 777.719 220.511 770.877 218.496 777.789 C 218.426 778.021 216.126 785.515 215.832 786.184 C 214.358 789.516 211.727 810.182 188.456 809.103 L 120.397 809.103 C 118.777 809.103 117.76 806.703 118.165 805.135" style="fill:#ffffff;fill-opacity:1;fill-rule:nonzero;stroke:none" id="path76"/>
    </g>
    <g id="inner_letters">
      <path d="M 125.019 800.937 L 162.316 659.718 L 219.377 659.718 C 219.377 659.718 244.243 656.849 236.912 684.902 C 229.578 712.954 230.854 708.809 230.854 708.809 C 230.854 708.809 227.985 728.256 207.9 728.573 C 207.9 728.573 223.839 734.312 219.06 754.076 C 214.278 773.841 212.365 780.853 212.365 780.853 C 212.365 780.853 209.176 802.61 185.586 800.937 L 125.019 800.937 Z" style="fill:#000000;fill-opacity:1;fill-rule:nonzero;stroke:none" id="path80"/>
      <path d="M 219.378 800.937 L 255.401 659.718 L 307.997 659.718 C 307.997 659.718 334.776 656.849 329.038 682.989 C 323.3 709.128 319.794 718.373 319.794 718.373 C 319.794 718.373 318.198 742.6 296.204 744.832 L 306.404 800.937 L 271.977 801.928 L 266.238 761.727 L 255.718 800.937 L 219.378 800.937 Z" style="fill:#000000;fill-opacity:1;fill-rule:nonzero;stroke:none" id="path84"/>
      <path d="M 315.649 800.937 L 345.614 680.756 C 345.614 680.756 348.836 659.718 376.856 659.718 L 407.777 659.718 C 407.777 659.718 432.761 659.718 422.121 691.913 L 395.025 800.937 L 360.917 800.937 L 372.71 751.844 C 372.71 751.844 368.885 741.326 362.829 752.164 L 349.12 800.937 L 315.649 800.937 Z" style="fill:#000000;fill-opacity:1;fill-rule:nonzero;stroke:none" id="path88"/>
      <path d="M 408.733 800.937 L 443.16 659.718 L 478.544 659.718 L 442.523 800.937 L 408.733 800.937 Z" style="fill:#000000;fill-opacity:1;fill-rule:nonzero;stroke:none" id="path92"/>
      <path d="M 456.549 800.937 L 492.253 659.718 L 547.721 659.181 C 547.721 659.181 572.265 659.718 564.617 687.134 L 534.969 800.937 L 499.904 800.937 L 527.637 690.957 C 527.637 690.957 525.088 683.308 519.03 690.957 L 490.34 800.937 L 456.549 800.937 Z" style="fill:#000000;fill-opacity:1;fill-rule:nonzero;stroke:none" id="path96"/>
      <path d="M 558.559 761.409 L 591.091 761.409 C 591.091 761.409 588.312 774.159 597.344 774.798 C 597.344 774.798 606.696 777.667 609.245 748.339 L 563.021 745.47 L 581.193 677.888 C 581.193 677.888 583.14 659.719 609.245 659.719 L 641.443 659.719 C 641.443 659.719 664.713 656.211 658.975 680.437 L 653.874 702.115 L 620.879 701.798 C 620.879 701.798 625.504 685.539 614.664 687.132 C 614.664 687.132 608.948 683.284 604.144 715.504 L 648.774 717.207 L 634.109 779.26 C 634.109 779.26 631.275 800.938 618.809 800.938 L 567.484 800.938 C 567.484 800.938 543.576 802.211 558.559 761.409" style="fill:#000000;fill-opacity:1;fill-rule:nonzero;stroke:none" id="path100"/>
      <path d="M 662.163 800.942 L 689.896 688.407 L 674.596 688.407 L 682.564 659.54 L 746.32 659.718 L 740.265 688.727 L 724.006 688.407 L 694.677 800.937 L 662.163 800.942 Z" style="fill:#000000;fill-opacity:1;fill-rule:nonzero;stroke:none" id="path104"/>
      <path d="M 731.656 785.636 L 757.159 682.35 C 757.159 682.35 763.25 659.717 784.255 659.717 L 820.596 659.717 C 820.596 659.717 842.273 661.312 833.985 691.278 L 812.627 776.711 C 812.627 776.711 808.003 801.974 793.499 800.938 L 742.813 800.938 C 742.813 800.938 728.15 799.837 731.656 785.636" style="fill:#000000;fill-opacity:1;fill-rule:nonzero;stroke:none" id="path108"/>
      <path d="M 820.277 800.937 L 856.617 659.718 L 910.173 659.718 C 910.173 659.718 935.796 660.395 929.301 685.538 L 920.054 724.111 C 920.054 724.111 917.185 741.326 897.423 745.788 L 908.26 800.937 L 872.556 801.297 L 866.181 761.091 L 856.617 801.297 L 820.277 800.937 Z" style="fill:#000000;fill-opacity:1;fill-rule:nonzero;stroke:none" id="path112"/>
      <path d="M 914.955 801.296 L 951.615 659.54 L 1049.162 659.54 C 1049.162 659.54 1076.575 660.037 1068.287 693.191 L 1042.147 801.296 L 1008.676 801.296 L 1032.903 696.697 C 1032.903 696.697 1029.397 683.944 1021.426 697.014 L 995.926 800.936 L 962.772 800.936 L 989.231 696.377 C 989.231 696.377 984.449 682.351 976.798 695.74 L 949.702 801.296 L 914.955 801.296 Z" style="fill:#000000;fill-opacity:1;fill-rule:nonzero;stroke:none" id="path116"/>
    </g>
    <g id="letter_holes">
      <path d="M 168.692 772.566 L 176.343 744.513 C 176.343 744.513 186.544 743.557 184.311 752.481 L 180.486 766.827 C 180.486 766.827 177.936 776.391 168.692 772.566" style="fill:#ffffff;fill-opacity:1;fill-rule:nonzero;stroke:none" id="path120"/>
      <path d="M 190.688 686.336 L 183.037 714.388 C 192.281 718.214 194.833 708.65 194.833 708.65 C 194.833 708.65 206.627 681.394 190.688 686.336" style="fill:#ffffff;fill-opacity:1;fill-rule:nonzero;stroke:none" id="path124"/>
      <path d="M 275.961 714.104 L 283.612 686.052 C 283.612 686.052 293.813 685.095 291.58 694.02 L 287.755 708.366 C 287.755 708.366 285.205 717.93 275.961 714.104" style="fill:#ffffff;fill-opacity:1;fill-rule:nonzero;stroke:none" id="path128"/>
      <path d="M 877.498 715.823 L 885.149 687.771 C 885.149 687.771 895.35 686.814 893.118 695.739 L 889.292 710.085 C 889.292 710.085 886.743 719.649 877.498 715.823" style="fill:#ffffff;fill-opacity:1;fill-rule:nonzero;stroke:none" id="path132"/>
      <path d="M 771.504 771.386 L 789.992 691.146 C 789.992 691.146 795.094 682.754 798.92 691.146 L 779.155 771.386 C 779.155 771.386 775.329 779.779 771.504 771.386" style="fill:#ffffff;fill-opacity:1;fill-rule:nonzero;stroke:none" id="path136"/>
      <path d="M 373.029 715.292 L 378.768 689.364 C 378.768 689.364 381.954 681.713 387.375 689.364 L 381.954 715.292 L 373.029 715.292 Z" style="fill:#ffffff;fill-opacity:1;fill-rule:nonzero;stroke:none" id="path140"/>
    </g>
    <g id="upper_tornado">
      <path d="M 331.634 638.981 C 325.911 634.124 280.723 594.09 287.725 546.561 C 287.937 545.117 289.573 544.368 290.834 545.102 C 299.054 549.882 325.027 564.282 343.263 566.605 C 345.498 566.889 346.564 563.943 344.646 562.762 C 323.533 549.749 260.259 505.758 267.905 450.007 C 268.142 448.274 270.277 447.558 271.486 448.824 C 281.489 459.279 316.624 492.78 359.159 496.136 C 361.494 496.321 362.363 493.162 360.241 492.169 C 345.585 485.314 316.774 470.244 295.004 448.866 C 293.743 447.625 291.618 448.357 291.453 450.12 C 290.574 459.411 288.871 481.321 290.801 495.16 C 291.071 497.085 288.841 498.331 287.383 497.048 C 276.35 487.327 249.144 457.596 252.136 402.847 C 252.261 400.567 249.197 399.718 248.191 401.768 C 242.859 412.631 236.586 434.458 250.972 462.97 C 251.939 464.885 249.761 466.848 247.978 465.654 C 220.832 447.483 129.758 370.27 305.851 242.306 C 307.602 241.034 306.533 238.275 304.385 238.537 C 293.885 239.828 271.813 246.86 242.337 279.622 C 240.986 281.123 238.487 280.042 238.707 278.034 C 241.761 250.094 265.84 138.006 455.538 146.849 C 456.157 146.879 456.756 146.641 457.171 146.179 C 461.024 141.877 482.606 120.03 516.465 128.72 C 517.241 128.919 518.06 128.682 518.575 128.065 C 523.202 122.522 546.552 95.84 566.095 97.254 C 572.288 97.703 566.095 97.254 566.095 97.254 C 567.246 97.371 591.553 96.834 611.507 111.385 C 611.807 111.602 612.139 111.737 612.506 111.769 C 614.736 111.962 623.713 112.451 639.21 109.787 C 642.037 109.3 667.899 107.859 681.289 120.871 C 681.289 120.871 690.373 134.848 704.242 131.956 C 704.242 131.956 727.365 126.223 745.944 137.507 C 746.186 137.657 746.451 137.752 746.733 137.784 C 750.067 138.164 772.775 141.053 786.487 150.754 C 786.487 150.754 793.868 155.214 801.647 166.928 C 801.734 167.06 801.804 167.195 801.864 167.342 C 802.271 168.374 804.471 173.196 811.446 177.923 C 812.105 178.367 812.971 178.392 813.653 177.98 C 819.269 174.586 849.586 164.606 929.953 270.238 C 930.21 270.578 930.572 270.835 930.977 270.965 L 939.24 273.617 C 940.783 274.111 942.259 272.743 941.909 271.16 C 940.798 266.13 937.025 255.787 924.245 241.217 C 923.076 239.883 923.978 237.783 925.748 237.753 C 934.713 237.598 955.594 238.929 972.017 252.906 C 972.017 252.906 1003.478 269.834 1003.098 331.922 C 1003.098 331.984 1003.101 332.049 1003.108 332.114 C 1003.356 334.584 1007.808 384.731 967.712 445.338 C 967.712 445.338 935.814 497.879 908.451 516.091 C 908.451 516.091 905.045 523.752 922.497 511.873 C 923.963 510.874 925.925 512.053 925.743 513.816 C 925.503 516.136 925.126 519.097 924.554 522.041 C 924.245 523.645 925.773 524.983 927.309 524.426 C 928.752 523.902 930.25 525.048 930.096 526.576 C 928.755 539.986 920.771 592.223 875.928 635.036 C 875.539 635.408 875.014 635.622 874.477 635.625 L 332.99 639.47 C 332.493 639.473 332.013 639.303 331.634 638.981" style="fill:#ffffff;fill-opacity:1;fill-rule:nonzero;stroke:none" id="background"/>
      <path d="M 373.029 631.347 C 373.029 631.347 345.613 605.047 337.485 570.14 C 337.485 570.14 381.477 592.614 413.515 584.963 C 413.515 584.963 335.573 549.579 317.881 494.59 C 317.881 494.59 346.57 519.454 439.814 518.497 C 439.814 518.497 322.663 484.549 301.145 406.127 C 301.145 406.127 271.497 433.863 287.756 482.157 C 287.756 482.157 188.296 381.264 357.57 273.196 C 357.57 273.196 342.904 256.461 291.901 297.583 C 291.901 297.583 296.321 235.997 397.274 206.661 C 398.145 206.409 398.884 205.807 399.279 204.991 C 402.555 198.206 419.563 166.195 451.491 160.12 C 454.572 159.533 457.391 158.012 459.419 155.618 C 465.677 148.226 482.11 133.875 509.364 135.788 C 522.059 136.68 529.88 124.986 533.371 121.942 C 544.678 112.088 557.443 101.655 566.093 104.881 C 566.093 104.881 564.887 97.71 606.831 117.315 C 606.831 117.315 617.931 122.693 647.132 116.056 C 652.773 114.773 658.706 115.709 664.122 117.747 C 671.116 120.376 680.371 125.253 687.23 133.985 C 689.98 137.484 694.422 139.139 698.757 138.133 C 708.281 135.926 724.922 133.895 736.278 142.658 C 736.278 142.658 773.218 146.064 787.442 159.393 C 787.442 159.393 812.248 190.295 825.697 194.777 C 825.697 194.777 868.093 201.517 874.101 239.815 C 874.488 242.292 875.639 244.587 877.42 246.353 C 889.94 258.758 939.578 309.624 946.672 343.011 C 946.672 343.011 959.105 312.409 933.285 278.458 C 933.285 278.458 1094.428 314.599 863.95 548.622 C 863.95 548.622 882.119 543.363 902.681 526.148 C 902.681 526.148 900.451 536.669 893.436 551.971 C 893.436 551.971 914.637 537.625 921.808 529.497 C 921.808 529.497 910.332 594.05 869.209 631.347 L 373.029 631.347 Z" style="fill:#000000;fill-opacity:1;fill-rule:nonzero;stroke:none" id="foreground"/>
      <path d="M 433.119 560.577 C 433.119 560.577 519.926 595.961 665.4 577.792 C 665.4 577.792 539.274 633.737 433.119 560.577" style="fill:#ffffff;fill-opacity:1;fill-rule:nonzero;stroke:none" id="middle_slash"/>
    </g>
    <g id="brain">
      <g id="brain_left">
        <path d="M 453.202 430.993 C 453.202 430.993 454.398 409.953 473.287 388.435 L 476.393 364.288 C 476.393 364.288 465.873 364.768 455.115 355.443 C 444.355 346.119 430.012 350.422 430.012 350.422 L 415.189 354.487 C 415.189 354.487 422.361 340.381 442.682 342.054 C 442.682 342.054 459.418 343.967 464.2 351.618 C 464.2 351.618 477.11 357.117 482.371 346.119 C 482.371 346.119 487.63 318.384 500.303 315.278 C 500.303 315.278 511.06 308.343 506.758 295.673 C 506.758 295.673 514.646 280.61 503.889 276.305 C 503.889 276.305 490.259 272.48 490.739 267.221 C 490.739 267.221 508.191 267.46 514.409 277.501 C 514.409 277.501 515.603 283 523.014 277.501 L 536.164 268.654 C 536.164 268.654 530.967 236.619 546.684 236.619 C 548.357 236.619 558.39 225.137 568.918 228.251 C 568.918 228.251 572.267 211.752 589.003 213.665 C 589.003 213.665 593.068 210.079 595.697 203.385 C 595.697 203.385 594.024 185.932 609.324 188.322 C 609.324 188.322 610.997 191.671 617.455 184.257 C 617.455 184.257 627.016 171.347 637.297 172.543 C 637.297 172.543 647.577 174.216 643.275 162.502 C 638.972 150.786 627.016 152.698 627.016 152.698 C 627.016 152.698 625.822 145.527 633.234 145.766 C 633.234 145.766 632.517 140.745 648.057 150.309 C 648.057 150.309 658.814 139.309 667.661 142.897 C 667.661 142.897 668.618 146.483 664.076 148.396 C 664.076 148.396 649.253 155.568 651.403 163.696 C 651.403 163.696 649.013 172.783 674.833 166.088 C 674.833 166.088 689.419 145.761 684.876 143.971 C 684.876 143.971 672.204 117.075 629.885 126.399 C 629.885 126.399 589.719 129.508 583.981 119.704 C 583.981 119.704 564.139 103.688 539.752 127.355 C 539.752 127.355 561.986 119.704 577.766 132.854 C 577.766 132.854 578.962 142.418 594.024 135.486 C 594.024 135.486 618.888 128.312 613.866 146.243 C 613.866 146.243 600.956 135.006 589.003 146.243 C 589.003 146.243 582.547 150.069 567.485 136.442 C 567.485 136.442 552.183 127.835 536.164 137.636 C 536.164 137.636 522.297 148.636 505.085 146.004 C 505.085 146.004 477.349 140.265 467.785 160.35 C 467.785 160.35 462.287 168.24 446.987 170.87 C 446.987 170.87 422.121 177.325 407.538 208.883 C 407.538 208.883 391.519 240.442 377.89 250.245 C 377.89 250.245 358.285 265.068 362.35 296.866 C 362.35 296.866 375.343 289.213 379.086 287.782 C 387.214 284.673 383.868 284.436 388.65 265.308 C 388.65 265.308 388.889 249.049 406.821 244.03 C 424.75 239.008 405.146 249.289 405.146 249.289 C 405.146 249.289 393.192 258.136 394.865 278.218 C 394.865 278.218 396.54 290.411 380.282 298.062 C 380.282 298.062 353.266 310.016 351.113 327.471 C 351.113 327.471 334.138 348.509 348.484 356.877 L 367.849 375.765 C 367.849 375.765 372.87 380.547 386.497 371.939 C 386.497 371.939 396.778 372.419 390.802 381.743 C 390.802 381.743 388.17 389.392 370.241 392.74 C 370.241 392.74 363.783 409.236 377.413 413.778 C 377.413 413.778 394.148 401.825 380.759 397.043 C 380.759 397.043 388.41 387.479 393.671 403.498 C 393.671 403.498 390.083 432.906 410.407 439.122 C 410.407 439.122 419.014 447.489 430.728 435.059 C 430.728 435.059 415.666 426.212 422.361 418.56 C 422.361 418.56 425.946 416.887 425.23 420.953 C 425.23 420.953 419.968 426.451 433.118 426.691 C 433.118 426.691 443.161 425.735 445.311 428.841 C 447.464 431.95 453.202 430.993 453.202 430.993" style="fill:#ffffff;fill-opacity:1;fill-rule:nonzero;stroke:none" id="bg_left_brain"/>
        <path d="M 575.374 210.079 C 575.374 210.079 588.284 194.777 582.786 182.583 C 577.287 170.39 610.519 174.935 610.519 174.935 C 610.519 174.935 615.54 179.954 607.173 180.194 C 598.805 180.433 593.693 183.063 593.693 183.063 C 593.693 183.063 589.001 186.409 590.197 196.69 C 591.393 206.97 575.374 210.079 575.374 210.079" style="fill:#000000;fill-opacity:1;fill-rule:nonzero;stroke:none" id="path164"/>
        <path d="M 546.445 226.337 C 546.445 226.337 528.993 215.58 522.538 239.007 C 522.538 239.007 519.906 246.898 502.933 240.443 C 502.933 240.443 494.563 241.877 502.933 250.244 C 502.933 250.244 524.928 259.571 529.23 243.312 C 529.23 243.312 531.623 227.293 541.187 228.967 C 550.748 230.64 545.729 230.163 546.445 226.337" style="fill:#000000;fill-opacity:1;fill-rule:nonzero;stroke:none" id="path168"/>
        <path d="M 499.213 220.36 C 499.213 220.36 504.367 227.294 504.367 218.926 C 504.367 218.926 506.15 191.653 520.623 193.583 C 524.211 194.06 533.296 193.583 536.642 185.215 C 536.642 185.215 539.034 170.869 548.358 181.867 C 548.358 181.867 556.966 195.256 556.486 197.169 C 556.486 197.169 561.029 173.739 544.293 172.542 C 544.293 172.542 533.463 158.197 557.048 158.676 C 557.048 158.676 570.593 166.087 575.374 169.913 C 575.374 169.913 588.285 172.542 592.35 162.502 C 592.35 162.502 579.44 169.196 575.374 164.175 C 575.374 164.175 565.094 152.221 554.334 150.785 C 554.334 150.785 538.794 150.308 533.296 166.564 C 533.296 166.564 532.579 185.37 525.405 186.486 C 525.405 186.486 508.43 182.713 505.323 192.092 C 505.323 192.092 494.059 208.406 499.213 220.36" style="fill:#000000;fill-opacity:1;fill-rule:nonzero;stroke:none" id="path172"/>
        <path d="M 413.275 223.871 C 413.275 223.871 410.166 234.943 417.34 225.379 C 417.34 225.379 437.422 180.432 457.027 184.257 C 457.027 184.257 479.501 198.858 487.392 184.027 C 487.392 184.027 502.694 165.149 511.778 174.106 C 511.778 174.106 523.972 165.609 511.778 163.936 C 511.778 163.936 493.367 163.236 487.392 174.106 C 487.392 174.106 478.067 185.214 468.264 181.628 C 468.264 181.628 453.441 172.064 439.335 183.78 C 439.335 183.78 418.297 197.497 413.275 223.871" style="fill:#000000;fill-opacity:1;fill-rule:nonzero;stroke:none" id="path176"/>
        <path d="M 451.529 211.514 C 451.529 211.514 454.398 186.41 479.024 198.604 C 479.024 198.604 491.432 207.786 492.651 215.1 C 492.891 216.535 496.956 237.574 482.37 232.554 C 482.37 232.554 492.891 218.508 483.327 214.293 C 483.327 214.293 480.2 212.47 472.439 218.925 C 464.678 225.38 469.221 216.296 469.221 216.296 C 469.221 216.296 479.961 206.492 472.439 205.059 C 464.918 203.623 457.507 207.688 457.507 207.688 C 457.507 207.688 454.158 215.339 451.529 211.514" style="fill:#000000;fill-opacity:1;fill-rule:nonzero;stroke:none" id="path180"/>
        <path d="M 439.096 321.254 C 439.096 321.254 437.423 312.169 442.682 319.101 C 447.944 326.035 451.767 332.73 466.352 330.817 C 480.935 328.905 466.352 336.556 466.352 336.556 C 466.352 336.556 447.704 343.727 439.096 321.254" style="fill:#000000;fill-opacity:1;fill-rule:nonzero;stroke:none" id="path184"/>
        <path d="M 391.511 347.466 C 391.044 343.67 388.494 337.847 376.845 340.296 C 376.603 340.346 376.366 340.439 376.154 340.566 C 374.196 341.74 363.393 347.9 361.873 341.815 C 361.873 341.815 362.107 323.276 387.685 329.209 C 388.14 329.314 388.559 329.574 388.866 329.926 C 390.909 332.268 399.189 340.806 401.532 328.198 C 401.552 328.093 401.574 327.996 401.612 327.896 C 402.418 325.718 412.549 299.863 429.055 327.069 C 429.055 327.069 429.295 331.534 422.84 328.188 C 416.384 324.839 412.854 323.329 410.883 325.319 C 403.712 332.563 410.883 325.319 401.322 339.902 C 393.558 351.738 396.508 348.772 394.185 349.279 C 392.937 349.551 391.668 348.734 391.511 347.466" style="fill:#000000;fill-opacity:1;fill-rule:nonzero;stroke:none" id="path188"/>
        <path d="M 402.995 416.888 C 402.995 416.888 408.016 423.103 408.733 414.498 C 408.733 414.498 405.624 391.305 417.101 401.108 C 417.101 401.108 435.989 425.735 444.357 412.106 C 452.724 398.479 442.204 406.367 442.204 406.367 C 442.204 406.367 436.708 409.476 429.057 400.869 C 429.057 400.869 416.144 382.22 407.06 385.566 C 407.06 385.566 394.627 400.392 402.995 416.888" style="fill:#000000;fill-opacity:1;fill-rule:nonzero;stroke:none" id="path192"/>
        <path d="M 423.844 296.628 C 423.844 296.628 421.167 308.105 429.056 298.78 C 429.056 298.78 442.695 270.568 455.84 283.718 C 455.84 283.718 472.807 308.344 481.892 301.17 C 490.979 293.998 481.892 295.671 481.892 295.671 C 481.892 295.671 473.047 298.541 469.938 289.693 C 469.938 289.693 459.483 273.914 454.668 276.067 C 449.854 278.219 453.442 270.328 453.442 270.328 L 470.895 256.702 C 470.895 256.702 479.023 247.377 465.873 250.484 C 465.873 250.484 447.914 265.307 438.844 274.154 C 438.844 274.154 433.838 282.282 420.925 274.154 C 420.925 274.154 411.366 263.936 429.056 252.906 C 429.056 252.906 453.203 232.075 449.617 225.62 C 446.031 219.165 443.399 226.576 443.399 226.576 C 443.399 226.576 433.118 242.356 420.688 248.571 C 420.688 248.571 400.219 262.44 412.605 274.394 C 412.605 274.394 415.189 279.176 421.881 284.674 C 428.576 290.173 423.844 294.955 423.844 294.955 L 423.844 296.628 Z" style="fill:#000000;fill-opacity:1;fill-rule:nonzero;stroke:none" id="path196"/>
      </g>
      <g id="brain_right">
        <path d="M 857.973 390.349 C 857.973 390.349 852.714 398.957 863.711 401.586 C 863.711 401.586 888.815 395.848 886.662 414.496 C 884.512 433.144 879.798 446.534 871.754 453.706 C 871.754 453.706 864.428 445.101 854.387 447.73 C 854.387 447.73 848.649 450.36 848.409 453.706 C 848.169 457.054 850.082 458.488 843.867 458.727 C 837.652 458.967 848.649 463.749 852.235 460.161 C 855.82 456.575 859.169 456.815 858.45 459.923 C 857.733 463.03 841.237 479.288 829.284 474.986 C 817.328 470.681 805.374 458.967 794.854 458.488 C 784.336 458.011 801.309 441.992 809.916 447.49 C 809.916 447.49 816.851 449.163 824.502 440.796 C 824.502 440.796 827.918 439.123 842.671 443.188 C 842.671 443.188 853.191 444.381 859.169 429.798 C 859.169 429.798 867.37 419.585 875.425 425.733 C 875.425 425.733 872.556 412.823 862.038 416.169 C 862.038 416.169 853.191 418.801 850.801 425.733 C 850.801 425.733 847.453 431.951 834.782 431.711 C 834.782 431.711 832.153 427.886 817.567 430.275 C 817.567 430.275 813.265 431.232 818.047 421.67 C 818.047 421.67 821.633 405.889 820.436 405.172 C 820.436 405.172 837.172 407.564 842.671 394.175 C 842.671 394.175 827.311 397.101 822.979 394.157 C 822.357 393.733 821.962 393.191 821.872 392.502 C 821.153 387.003 820.436 374.57 823.783 364.766 C 823.783 364.766 813.265 378.872 813.265 392.022 C 813.265 392.022 801.309 397.283 800.115 395.131 C 800.115 395.131 798.23 396.564 791.52 403.259 C 791.52 403.259 780.987 404.215 776.685 399.434 C 776.685 399.434 780.987 413.063 791.984 413.54 C 791.984 413.54 799.875 412.583 804.178 404.215 C 804.178 404.215 811.352 399.434 813.025 407.324 C 813.025 407.324 812.785 425.973 802.028 431.951 C 802.028 431.951 789.355 433.144 782.423 455.141 C 782.423 455.141 780.51 466.139 760.426 465.662 C 760.426 465.662 757.08 468.768 746.08 459.684 C 746.08 459.684 745.363 468.291 752.775 470.921 C 760.186 473.55 773.099 470.921 777.162 474.267 C 777.162 474.267 785.529 479.528 778.358 488.136 C 778.358 488.136 761.622 493.634 753.015 485.027 C 753.015 485.027 732.453 472.833 722.889 478.092 C 722.889 478.092 709.502 484.787 704.721 477.136 C 704.721 477.136 701.612 470.681 714.761 472.354 C 727.911 474.03 723.606 471.16 723.606 471.16 C 723.606 471.16 709.023 470.204 709.023 465.899 C 709.023 461.596 695.396 463.986 694.917 470.441 C 694.917 470.441 686.789 487.656 677.465 485.504 L 668.617 485.744 C 668.617 485.744 661.446 482.397 670.29 479.528 C 670.29 479.528 684.159 484.787 687.029 467.335 C 687.029 467.335 688.462 453.468 704.721 454.662 C 704.721 454.662 718.107 457.771 727.911 439.839 C 727.911 439.839 740.821 439.599 747.516 434.341 C 747.516 434.341 759.47 427.169 757.797 408.52 C 757.797 408.52 754.927 362.616 757.317 352.336 C 757.317 352.336 754.927 344.684 779.314 320.775 C 779.314 320.775 785.052 293.998 774.055 278.459 C 774.055 278.459 759.47 266.982 758.036 266.265 C 758.036 266.265 752.538 262.2 753.254 245.941 C 753.254 245.941 753.971 223.467 737.235 221.555 C 737.235 221.555 718.347 221.317 711.176 234.704 C 711.176 234.704 703.764 255.266 699.459 253.353 C 699.459 253.353 691.571 255.745 690.375 253.116 C 690.375 253.116 690.614 236.857 680.334 236.857 C 680.334 236.857 667.661 235.184 662.162 250.963 C 662.162 250.963 676.029 240.443 679.138 244.748 C 679.138 244.748 691.571 250.007 673.639 271.524 C 673.639 271.524 650.448 288.26 649.252 266.982 C 649.252 266.982 633.95 270.808 646.383 282.521 C 646.383 282.521 664.792 293.758 674.835 278.459 C 674.835 278.459 687.985 266.026 689.179 259.571 L 702.089 257.895 C 702.089 257.895 718.107 258.374 716.914 273.437 L 717.151 283.957 L 718.107 299.737 C 718.107 299.737 718.347 314.32 718.347 316.232 C 718.347 318.145 716.195 326.513 716.195 326.513 C 716.195 326.513 716.674 340.379 724.802 329.142 C 724.802 329.142 731.976 311.213 723.846 293.281 C 723.846 293.281 723.129 285.87 729.824 288.02 C 729.824 288.02 744.886 302.606 744.886 315.036 C 744.886 315.036 751.818 297.824 727.911 280.369 C 727.911 280.369 729.584 258.374 709.979 251.44 C 709.979 251.44 722.173 222.511 733.649 230.402 C 733.649 230.402 746.08 228.966 744.647 253.116 C 744.647 253.116 742.017 266.503 755.644 275.827 C 755.644 275.827 769.75 279.175 771.423 300.453 C 771.423 300.453 776.445 314.799 760.186 332.012 C 760.186 332.012 746.08 343.968 748.949 366.679 C 748.949 366.679 755.22 408.186 748.233 422.864 C 748.233 422.864 745.124 433.624 728.388 429.319 C 728.388 429.319 727.194 415.452 722.889 410.433 C 722.889 410.433 723.129 401.826 725.998 392.022 C 725.998 392.022 734.126 375.047 722.889 358.551 C 722.889 358.551 718.107 343.728 708.783 353.769 C 708.783 353.769 701.372 363.81 702.328 368.592 C 702.328 368.592 703.524 372.417 708.783 366.202 C 708.783 366.202 715.001 354.725 719.543 367.635 C 719.543 367.635 719.304 390.828 715.718 405.412 C 715.718 405.412 713.326 400.39 719.783 430.994 C 719.783 430.994 718.827 447.013 707.35 446.294 C 707.35 446.294 701.372 443.188 686.309 449.403 C 686.309 449.403 682.247 444.861 688.222 428.362 C 694.2 411.867 680.571 430.038 680.571 430.038 C 680.571 430.038 670.29 447.013 679.138 458.967 C 687.985 470.921 666.705 472.117 666.705 472.117 C 666.705 472.117 660.729 472.833 654.751 480.724 L 645.904 476.899 C 645.904 476.899 640.168 480.245 634.429 464.705 C 634.429 464.705 621.04 449.403 617.931 450.599 C 617.931 450.599 604.304 437.449 606.934 417.365 C 606.934 417.365 590.675 429.082 610.759 454.662 L 629.408 474.986 C 629.408 474.986 613.389 477.855 602.152 485.267 C 590.915 492.678 578.19 474.03 597.345 472.833 C 597.345 472.833 611.955 464.466 599.283 448.924 C 599.283 448.924 582.547 440.556 592.828 424.3 C 592.828 424.3 581.83 429.319 583.264 436.73 C 583.264 436.73 592.828 454.662 580.157 461.117 C 580.157 461.117 555.531 475.223 546.446 475.703 C 537.359 476.18 520.624 474.03 527.798 465.182 C 527.798 465.182 527.798 458.727 554.335 457.054 C 554.335 457.054 574.179 448.207 577.525 435.297 C 577.525 435.297 603.588 399.434 604.304 399.434 C 605.021 399.434 619.844 394.414 632.037 411.627 C 632.037 411.627 635.386 401.109 615.302 393.218 L 622.713 381.265 C 622.713 381.265 626.299 374.81 619.607 379.829 C 619.607 379.829 608.37 392.978 603.108 389.632 C 603.108 389.632 587.329 372.417 569.158 379.829 C 569.158 379.829 547.64 387.959 533.297 376.243 C 518.951 364.529 533.534 382.221 533.534 382.221 C 533.534 382.221 544.294 393.695 567.485 389.153 C 567.485 389.153 601.675 387.959 590.675 401.826 L 559.356 442.708 C 559.356 442.708 545.25 456.338 529.948 446.057 C 514.648 435.776 499.586 442.708 499.586 442.708 C 499.586 442.708 485.24 454.425 493.608 456.098 C 493.608 456.098 511.779 441.275 528.275 454.185 C 528.275 454.185 537.839 461.596 522.776 462.553 C 507.714 463.509 499.823 471.877 499.823 471.877 C 499.823 471.877 458.463 476.659 479.024 453.945 C 479.024 453.945 492.891 446.774 499.106 434.101 C 499.106 434.101 512.735 425.733 531.384 432.668 C 531.384 432.668 517.038 414.736 479.981 430.515 C 479.981 430.515 449.616 439.123 467.788 414.736 C 467.788 414.736 472.33 403.976 480.218 400.39 C 480.218 400.39 502.215 423.583 516.321 413.54 C 516.321 413.54 472.33 407.801 485.956 365.246 C 485.956 365.246 489.782 348.51 496 347.314 C 496 347.314 495.043 331.535 510.823 321.014 C 510.823 321.014 524.689 361.18 542.381 358.551 C 542.381 358.551 552.901 367.158 577.288 339.186 C 577.288 339.186 586.133 326.753 604.065 339.186 C 604.065 339.186 621.757 342.292 622.713 334.881 C 622.713 334.881 602.869 334.644 600.239 326.992 C 600.239 326.992 585.656 320.298 572.266 333.687 C 572.266 333.687 546.207 366.202 525.166 335.121 C 525.166 335.121 512.735 312.17 518.951 294.955 C 518.951 294.955 550.272 270.568 556.248 266.026 C 562.226 261.483 555.291 260.287 555.291 260.287 L 546.684 263.873 C 546.684 263.873 539.035 246.898 558.16 240.682 C 558.16 240.682 575.136 239.966 577.288 236.617 C 577.288 236.617 581.83 220.358 593.784 221.555 C 593.784 221.555 620.323 214.623 626.778 240.682 C 626.778 240.682 637.059 250.963 649.969 239.486 C 649.969 239.486 653.795 227.772 666.705 231.119 C 666.705 231.119 674.356 227.293 667.661 222.751 C 667.661 222.751 655.707 218.208 647.816 227.053 C 647.816 227.053 637.536 246.658 629.647 226.337 C 629.647 226.337 627.974 211.753 603.825 214.383 C 603.825 214.383 603.108 195.495 613.149 199.32 C 613.149 199.32 619.127 198.604 624.626 190.713 C 624.626 190.713 647.579 169.675 638.492 192.149 L 626.299 201.473 C 626.299 201.473 638.015 203.863 645.427 192.386 C 645.427 192.386 655.707 169.912 679.615 178.042 C 679.615 178.042 690.614 178.759 695.157 167.522 C 695.157 167.522 709.979 151.743 724.802 163.697 C 724.802 163.697 730.301 159.394 724.325 155.569 C 724.325 155.569 702.089 145.525 690.852 161.784 C 690.852 161.784 683.44 170.152 681.527 169.195 C 681.527 169.195 696.353 135.484 721.696 146.005 C 721.696 146.005 740.344 153.656 750.625 153.656 C 750.625 153.656 786.965 166.326 792.464 178.519 C 797.962 190.713 816.851 202.429 830.957 205.536 C 830.957 205.536 866.82 221.078 866.341 246.421 C 866.341 246.421 875.665 286.826 873.275 296.151 C 873.275 296.151 874.948 324.6 884.512 320.775 C 884.512 320.775 875.665 301.17 880.207 297.107 C 880.207 297.107 904.354 312.886 896.226 337.273 C 896.226 337.273 886.183 354.486 897.899 376.96 C 897.899 376.96 917.983 395.848 910.093 413.063 C 910.093 413.063 907.943 424.06 900.531 409.237 C 900.531 409.237 899.095 391.545 881.403 390.828 C 881.403 390.828 875.425 391.305 865.384 396.804 C 865.384 396.804 861.799 398.24 857.973 390.349" style="fill:#ffffff;fill-opacity:1;fill-rule:nonzero;stroke:none" id="bg_brain_right"/>
        <path d="M 553.14 430.754 C 553.14 430.754 539.75 433.624 550.271 425.733 C 550.271 425.733 560.074 419.757 559.355 406.607 C 559.355 406.607 560.074 398.956 563.66 406.607 C 563.66 406.607 568.679 426.212 553.14 430.754" style="fill:#000000;fill-opacity:1;fill-rule:nonzero;stroke:none" id="path200"/>
        <path d="M 671.487 350.9 C 671.487 350.9 660.967 336.077 673.877 343.966 C 673.877 343.966 676.029 349.142 680.811 341.653 C 680.811 341.653 695.634 331.852 683.68 346.275 C 683.68 346.275 678.659 351.617 673.877 360.704 C 673.877 360.704 663.646 373.614 667.447 359.028 L 671.487 350.9 Z" style="fill:#000000;fill-opacity:1;fill-rule:nonzero;stroke:none" id="path204"/>
        <path d="M 685.753 319.819 C 685.753 319.819 688.462 337.034 692.764 318.623 C 692.764 318.623 692.764 297.825 697.069 298.781 C 697.069 298.781 703.764 301.41 704.241 306.43 C 704.241 306.43 712.369 307.084 706.871 298.748 C 706.871 298.748 697.541 282.457 688.34 298.748 C 688.34 298.748 684.477 311.928 685.753 319.819" style="fill:#000000;fill-opacity:1;fill-rule:nonzero;stroke:none" id="path208"/>
        <path d="M 589.003 298.062 C 589.003 298.062 599.133 299.413 589.901 304.954 C 589.337 305.294 588.835 305.721 588.438 306.245 C 586.428 308.91 579.396 317.495 572.984 316.493 C 571.32 316.234 560.933 322.129 561.494 304.872 C 561.502 304.635 561.524 304.392 561.559 304.158 C 562.069 300.717 566.254 273.763 572.744 271.523 C 572.744 271.523 577.773 264.683 585.065 267.058 C 586.206 267.43 587.132 268.264 587.736 269.3 C 589.03 271.515 592.498 275.498 600.239 273.915 C 609.314 272.06 603.446 276.55 601.66 277.818 C 601.338 278.048 601.011 278.225 600.642 278.37 C 598.539 279.192 590.865 281.756 584.937 278.143 C 584.937 278.143 579.199 274.872 573.94 287.065 C 573.94 287.065 561.747 316.234 575.376 307.147 C 575.376 307.147 585.764 297.106 589.003 298.062" style="fill:#000000;fill-opacity:1;fill-rule:nonzero;stroke:none" id="path212"/>
        <path d="M 662.163 196.6 C 662.163 196.6 655.198 191.498 665.626 190.986 C 666.25 190.956 666.872 191.058 667.462 191.268 C 670.585 192.387 679.378 196.158 683.92 193.775 C 683.92 193.775 686.961 196.158 693.244 188.084 C 693.244 188.084 701.083 177.939 710.195 181.195 C 710.534 181.317 710.851 181.482 711.158 181.674 C 713.598 183.198 724.855 190.552 725.282 196.6 C 725.282 196.6 725.999 205.537 720.737 199.082 C 720.737 199.082 712.597 189.535 702.738 189.383 C 699.424 189.333 696.703 192.372 697.739 195.516 C 698.163 196.802 699.197 197.873 701.372 198.125 C 701.372 198.125 713.566 202.907 713.805 206.493 C 714.045 210.079 716.675 212.948 710.219 211.275 C 710.219 211.275 695.856 203.774 688.34 202.667 C 688.34 202.667 671.247 205.297 662.163 196.6" style="fill:#000000;fill-opacity:1;fill-rule:nonzero;stroke:none" id="path216"/>
        <path d="M 620.768 322.717 C 620.768 322.717 634.29 330.134 647.15 327.127 C 647.15 327.127 655.62 334.643 638.45 345.401 C 638.45 345.401 617.092 355.155 636.4 375.261 C 655.708 395.37 638.45 374.33 638.45 374.33 C 638.45 374.33 666.88 403.716 655.436 425.006 C 655.436 425.006 647.817 439.894 650.209 461.144 C 650.209 461.144 656.799 459.097 656.372 449.228 C 656.372 449.228 657.099 439.504 664.65 424.132 C 664.65 424.132 672.244 391.263 646.284 369.885 C 646.284 369.885 631.671 359.437 641.362 352.096 C 651.053 344.754 658.677 335.163 658.677 335.163 C 658.677 335.163 661.091 317.993 653.857 318.427 C 653.857 318.427 647.345 319.633 633.074 317.031 C 631.321 316.712 614.823 314.319 614.823 314.319 L 620.768 322.717 Z" style="fill:#000000;fill-opacity:1;fill-rule:nonzero;stroke:none" id="path220"/>
        <path d="M 737.696 178.08 C 735.718 177.146 734.047 179.83 735.78 181.164 C 741.956 185.903 750.568 194.928 754.209 210.08 C 754.209 210.08 758.034 233.748 768.795 236.14 C 768.795 236.14 779.552 239.726 780.508 255.745 C 780.508 255.745 780.731 274.643 786.751 280.923 C 787.288 281.483 788.165 281.595 788.844 281.221 C 789.98 280.599 791.291 278.876 790.632 274.141 C 790.452 272.855 791.631 271.791 792.889 272.116 C 796.283 272.993 801.694 273.939 802.982 271.524 C 802.982 271.524 804.418 266.135 798.44 266.557 C 798.44 266.557 788.349 266.096 786.07 253.27 C 786.035 253.068 786.082 252.851 786.162 252.661 C 786.484 251.912 786.856 249.138 782.409 240.23 C 781.909 239.232 782.414 238.003 783.48 237.676 C 789.388 235.866 806.668 232.627 813.208 253.89 C 813.246 254.01 813.288 254.117 813.353 254.224 C 814.204 255.688 820.979 266.697 823.938 252.109 C 823.996 251.827 823.991 251.535 823.918 251.255 C 822.974 247.687 815.376 222.993 786.963 229.208 C 786.963 229.208 770.228 234.465 764.49 216.773 C 764.49 216.773 758.991 193.822 749.429 185.694 C 749.429 185.694 743.504 180.819 737.696 178.08" style="fill:#000000;fill-opacity:1;fill-rule:nonzero;stroke:none" id="path224"/>
        <path d="M 772.62 174.106 C 772.62 174.106 789.423 194.225 790.791 202.428 C 791.028 203.864 802.745 224.665 814.938 221.795 C 814.938 221.795 839.802 221.076 841.475 245.703 C 841.475 245.703 844.823 265.787 853.431 271.762 C 853.431 271.762 865.34 279.321 859.569 266.416 C 859.329 265.879 859.022 265.372 858.667 264.903 C 856.787 262.413 850.252 253.062 849.843 242.833 C 849.843 242.833 847.171 217.016 821.87 214.294 C 821.87 214.294 804.178 217.251 800.115 205.297 C 800.115 205.297 776.685 168.974 772.62 174.106" style="fill:#000000;fill-opacity:1;fill-rule:nonzero;stroke:none" id="path228"/>
        <path d="M 843.867 279.175 C 843.867 279.175 832.495 285.81 845.128 306.153 C 845.24 306.336 845.34 306.531 845.415 306.73 C 846.239 308.97 851.228 323.239 847.932 332.251 C 847.932 332.251 836.151 353.456 850.949 367.098 C 851.171 367.303 851.413 367.475 851.678 367.622 C 853.476 368.606 860.423 372.17 853.658 364.314 C 853.503 364.131 853.358 363.927 853.243 363.717 C 852.057 361.559 845.852 349.398 851.942 341.722 C 852.257 341.325 852.509 340.883 852.627 340.394 C 852.712 340.042 852.829 339.58 852.986 339.068 C 853.985 335.764 858.68 335.802 859.591 339.13 C 860.932 344.025 862.81 351.091 863.117 353.351 C 863.209 354.026 863.519 354.647 863.979 355.147 C 865.944 357.292 870.074 361.07 868.97 353.531 C 868.97 353.531 861.941 335.966 859.406 321.493 C 857.761 312.077 857.733 311.932 854.325 306.226 C 854.222 306.054 854.097 305.881 853.968 305.729 C 852.851 304.428 847.228 297.661 846.109 292.02 C 846.042 291.68 846.034 291.358 846.069 291.014 C 846.351 288.129 847.605 273.764 843.867 279.175" style="fill:#000000;fill-opacity:1;fill-rule:nonzero;stroke:none" id="path232"/>
        <path d="M 813.264 283.239 C 813.264 283.239 799.954 280.445 806.329 301.171 C 807.286 304.28 815.556 311.828 814.937 323.625 C 814.697 328.187 812.637 348.464 803.223 345.639 C 800.831 344.923 802.744 342.053 794.136 342.293 C 790.305 342.401 788.877 343.25 784.575 362.138 C 784.575 362.138 779.553 369.549 780.27 355.443 C 780.27 355.443 779.65 350.409 780.287 344.848 C 780.524 342.773 777.99 341.579 776.609 343.145 C 773.817 346.309 771.038 350.698 771.662 355.203 C 771.662 355.203 769.749 370.982 778.836 373.135 C 778.836 373.135 792.328 378.157 793.232 360.225 C 793.232 360.225 791.057 350.072 805.575 353.7 C 805.793 353.752 806.01 353.775 806.232 353.757 C 807.803 353.635 814.04 352.379 820.825 340.538 C 820.885 340.435 820.93 340.34 820.972 340.231 C 821.784 338.128 830.544 314.768 820.915 311.691 C 820.915 311.691 812.787 300.691 812.068 295.909 C 812.068 295.909 808.961 294.476 810.874 289.694 C 812.787 284.912 819.719 285.629 813.264 283.239" style="fill:#000000;fill-opacity:1;fill-rule:nonzero;stroke:none" id="path236"/>
      </g>
    </g>
  </g>
</svg>