<?xml version="1.0" encoding="utf-8"?>
<!-- Generator: Adobe Illustrator 28.0.0, SVG Export Plug-In . SVG Version: 6.00 Build 0)  -->
<svg version="1.1" xmlns="http://www.w3.org/2000/svg" xmlns:xlink="http://www.w3.org/1999/xlink" x="0px" y="0px"
	 viewBox="0 0 1920 1080" style="enable-background:new 0 0 1920 1080;" xml:space="preserve">
<style type="text/css">
	.st0{fill:#FFFFFF;}
	.st1{fill:none;}
	.st2{fill:#4EAE33;}
	.st3{fill:#38509F;}
	.st4{fill:#5DC5EC;}
	.st5{fill:#7A7BB6;}
</style>
<g id="logo_brainstorm_2023">
	<g id="cerveau">
		<circle cx="910.58" cy="547.57" r="240.28"/>
		<path class="st0" d="M997.13,603.55c0,0-24.46,30.07,7.13,102.51c0,0-76.09,17.62-127.79-47.23c0,0,8.55,3.96,15.7,2.68
			c0,0-36.26-7.02-49.91-40.47c0,0,11.36,3.7,13.91,1.02c0,0-16.46-3.22-30.64-18.51H997.13z"/>
		<path d="M992.52,605.33c0,0-23.62,27.32,3.7,92.04c0,0-55.02,11.23-100.72-36.51c0,0,14.68-0.38,15.45-3.45
			c0,0-36.26-3.96-52.09-33.7c0,0,12.13,4.72,21.83-1.02c0,0-25.53-3.7-37.79-17.36H992.52z"/>
		<path class="st0" d="M889.37,615.03c0,0,36.51,8.68,67.79,1.66C957.16,616.69,931.75,633.42,889.37,615.03z"/>
		<path class="st0" d="M920.77,649.63c0,0,36.38,7.02,56.3-2.04C977.07,647.59,952.82,666.61,920.77,649.63z"/>
		<path class="st0" d="M803.11,563.18c-2.29-1.95-20.39-17.98-17.58-37.01c0.09-0.58,0.74-0.88,1.24-0.58
			c3.29,1.91,13.69,7.68,21,8.61c0.89,0.11,1.32-1.07,0.55-1.54c-8.46-5.21-33.79-22.83-30.73-45.15c0.1-0.69,0.95-0.98,1.43-0.47
			c4.01,4.19,18.08,17.6,35.11,18.95c0.94,0.07,1.28-1.19,0.43-1.59c-5.87-2.75-17.41-8.78-26.12-17.34c-0.51-0.5-1.36-0.2-1.42,0.5
			c-0.35,3.72-1.03,12.5-0.26,18.04c0.11,0.77-0.79,1.27-1.37,0.76c-4.42-3.89-15.31-15.8-14.11-37.72
			c0.05-0.91-1.18-1.25-1.58-0.43c-2.14,4.35-4.65,13.09,1.11,24.51c0.39,0.77-0.49,1.55-1.2,1.08
			c-10.87-7.28-47.34-38.2,23.18-89.44c0.7-0.51,0.27-1.61-0.59-1.51c-4.21,0.52-13.04,3.33-24.85,16.45
			c-0.54,0.6-1.54,0.17-1.45-0.64c1.22-11.19,10.87-56.08,86.83-52.53c0.25,0.01,0.49-0.08,0.65-0.27
			c1.54-1.72,10.19-10.47,23.75-6.99c0.31,0.08,0.64-0.02,0.84-0.26c1.85-2.22,11.2-12.9,19.03-12.34c2.48,0.18,0,0,0,0
			c0.46,0.05,10.2-0.17,18.19,5.66c0.12,0.09,0.25,0.14,0.4,0.15c0.89,0.08,4.49,0.27,10.69-0.79c1.13-0.19,11.49-0.77,16.85,4.44
			c0,0,3.64,5.6,9.19,4.44c0,0,9.26-2.3,16.7,2.22c0.1,0.06,0.2,0.1,0.32,0.11c1.33,0.15,10.43,1.31,15.92,5.19
			c0,0,2.96,1.79,6.07,6.48c0.04,0.05,0.06,0.11,0.09,0.17c0.16,0.41,1.04,2.34,3.84,4.24c0.26,0.18,0.61,0.19,0.88,0.02
			c2.25-1.36,14.39-5.36,46.57,36.95c0.1,0.14,0.25,0.24,0.41,0.29l3.31,1.06c0.62,0.2,1.21-0.35,1.07-0.98
			c-0.44-2.01-1.96-6.16-7.07-11.99c-0.47-0.53-0.11-1.37,0.6-1.39c3.59-0.06,11.95,0.47,18.53,6.07c0,0,12.6,6.78,12.45,31.64
			c0,0.03,0,0.05,0,0.08c0.1,0.99,1.88,21.07-14.17,45.34c0,0-12.77,21.04-23.73,28.33c0,0-1.36,3.07,5.63-1.69
			c0.59-0.4,1.37,0.07,1.3,0.78c-0.1,0.93-0.25,2.11-0.48,3.29c-0.12,0.64,0.49,1.18,1.1,0.96l0,0c0.58-0.21,1.18,0.25,1.12,0.86
			c-0.54,5.37-3.73,26.29-21.69,43.43c-0.16,0.15-0.37,0.23-0.58,0.24l-216.85,1.54C803.45,563.38,803.26,563.31,803.11,563.18z"/>
		<path d="M819.69,560.13c0,0-10.98-10.53-14.23-24.51c0,0,17.62,9,30.45,5.94c0,0-31.21-14.17-38.3-36.19
			c0,0,11.49,9.96,48.83,9.57c0,0-46.91-13.6-55.53-45c0,0-11.87,11.11-5.36,30.45c0,0-39.83-40.4,27.96-83.68
			c0,0-5.87-6.7-26.3,9.77c0,0,1.77-24.66,42.2-36.41c0.35-0.1,0.65-0.34,0.8-0.67c1.31-2.72,8.12-15.54,20.91-17.97
			c1.23-0.23,2.36-0.84,3.17-1.8c2.51-2.96,9.09-8.71,20-7.94c5.08,0.36,8.22-4.33,9.61-5.55c4.53-3.95,9.64-8.12,13.1-6.83
			c0,0-0.48-2.87,16.31,4.98c0,0,4.45,2.15,16.14-0.5c2.26-0.51,4.64-0.14,6.8,0.68c2.8,1.05,6.51,3.01,9.25,6.5
			c1.1,1.4,2.88,2.06,4.62,1.66c3.81-0.88,10.48-1.7,15.03,1.81c0,0,14.79,1.36,20.49,6.7c0,0,9.93,12.38,15.32,14.17
			c0,0,16.98,2.7,19.38,18.04c0.16,0.99,0.62,1.91,1.33,2.62c5.01,4.97,24.89,25.34,27.73,38.71c0,0,4.98-12.26-5.36-25.85
			c0,0,64.53,14.47-27.77,108.19c0,0,7.28-2.11,15.51-9c0,0-0.89,4.21-3.7,10.34c0,0,8.49-5.74,11.36-9c0,0-4.6,25.85-21.06,40.79
			H819.69z"/>
		<path class="st0" d="M843.75,531.79c0,0,34.76,14.17,93.02,6.89C936.77,538.68,886.26,561.09,843.75,531.79z"/>
		<path class="st0" d="M1013.89,463.62c0,0-2.11,3.45,2.3,4.5c0,0,10.05-2.3,9.19,5.17s-2.75,12.83-5.97,15.7
			c0,0-2.93-3.45-6.96-2.39c0,0-2.3,1.05-2.39,2.39c-0.1,1.34,0.67,1.91-1.82,2.01c-2.49,0.1,1.91,2.01,3.35,0.57
			c1.44-1.44,2.78-1.34,2.49-0.1s-6.89,7.76-11.68,6.03c-4.79-1.72-9.57-6.41-13.79-6.61c-4.21-0.19,2.59-6.61,6.03-4.4
			c0,0,2.78,0.67,5.84-2.68c0,0,1.37-0.67,7.28,0.96c0,0,4.21,0.48,6.61-5.36c0,0,3.28-4.09,6.51-1.63c0,0-1.15-5.17-5.36-3.83
			c0,0-3.54,1.05-4.5,3.83c0,0-1.34,2.49-6.41,2.39c0,0-1.05-1.53-6.89-0.57c0,0-1.72,0.38,0.19-3.45c0,0,1.44-6.32,0.96-6.61
			c0,0,6.7,0.96,8.9-4.4c0,0-6.15,1.17-7.89-0.01c-0.25-0.17-0.41-0.39-0.44-0.66c-0.29-2.2-0.57-7.18,0.77-11.11
			c0,0-4.21,5.65-4.21,10.91c0,0-4.79,2.11-5.27,1.24c0,0-0.76,0.57-3.44,3.26c0,0-4.22,0.38-5.94-1.53c0,0,1.72,5.46,6.13,5.65
			c0,0,3.16-0.38,4.88-3.73c0,0,2.87-1.91,3.54,1.24c0,0-0.1,7.47-4.4,9.86c0,0-5.07,0.48-7.85,9.29c0,0-0.77,4.4-8.81,4.21
			c0,0-1.34,1.24-5.74-2.39c0,0-0.29,3.45,2.68,4.5s8.14,0,9.77,1.34c0,0,3.35,2.11,0.48,5.55c0,0-6.7,2.2-10.15-1.24
			c0,0-8.23-4.88-12.06-2.78c0,0-5.36,2.68-7.28-0.38c0,0-1.24-2.59,4.02-1.91c5.27,0.67,3.54-0.48,3.54-0.48s-5.84-0.38-5.84-2.11
			c0-1.72-5.46-0.77-5.65,1.82c0,0-3.26,6.89-6.99,6.03l-3.54,0.1c0,0-2.87-1.34,0.67-2.49c0,0,5.55,2.11,6.7-4.88
			c0,0,0.57-5.55,7.09-5.07c0,0,5.36,1.24,9.29-5.94c0,0,5.17-0.1,7.85-2.2c0,0,4.79-2.87,4.12-10.34c0,0-1.15-18.38-0.19-22.5
			c0,0-0.96-3.06,8.81-12.64c0,0,2.3-10.72-2.11-16.95c0,0-5.84-4.6-6.41-4.88c0,0-2.2-1.63-1.91-8.14c0,0,0.29-9-6.41-9.77
			c0,0-7.56-0.1-10.44,5.27c0,0-2.97,8.23-4.69,7.47c0,0-3.16,0.96-3.64-0.1c0,0,0.1-6.51-4.02-6.51c0,0-5.07-0.67-7.28,5.65
			c0,0,5.55-4.21,6.8-2.49c0,0,4.98,2.11-2.2,10.72c0,0-9.29,6.7-9.77-1.82c0,0-6.13,1.53-1.15,6.22c0,0,7.37,4.5,11.39-1.63
			c0,0,5.27-4.98,5.74-7.56l5.17-0.67c0,0,6.41,0.19,5.94,6.22l0.1,4.21l0.38,6.32c0,0,0.1,5.84,0.1,6.61
			c0,0.77-0.86,4.12-0.86,4.12s0.19,5.55,3.45,1.05c0,0,2.87-7.18-0.38-14.36c0,0-0.29-2.97,2.39-2.11c0,0,6.03,5.84,6.03,10.82
			c0,0,2.78-6.89-6.8-13.88c0,0,0.67-8.81-7.18-11.59c0,0,4.88-11.59,9.48-8.43c0,0,4.98-0.57,4.4,9.1c0,0-1.05,5.36,4.4,9.1
			c0,0,5.65,1.34,6.32,9.86c0,0,2.01,5.74-4.5,12.64c0,0-5.65,4.79-4.5,13.88c0,0,2.51,16.62-0.29,22.5c0,0-1.24,4.31-7.95,2.59
			c0,0-0.48-5.55-2.2-7.56c0,0,0.1-3.45,1.24-7.37c0,0,3.26-6.8-1.24-13.4c0,0-1.91-5.94-5.65-1.91c0,0-2.97,4.02-2.59,5.94
			c0,0,0.48,1.53,2.59-0.96c0,0,2.49-4.6,4.31,0.57c0,0-0.1,9.29-1.53,15.13c0,0-0.96-2.01,1.63,10.24c0,0-0.38,6.41-4.98,6.13
			c0,0-2.39-1.24-8.43,1.24c0,0-1.63-1.82,0.77-8.43s-3.06,0.67-3.06,0.67s-4.12,6.8-0.57,11.59c3.54,4.79-4.98,5.27-4.98,5.27
			s-2.39,0.29-4.79,3.45l-3.54-1.53c0,0-2.3,1.34-4.6-4.88c0,0-5.36-6.13-6.61-5.65c0,0-5.46-5.27-4.4-13.31
			c0,0-6.51,4.69,1.53,14.94l7.47,8.14c0,0-6.41,1.15-10.91,4.12s-9.6-4.5-1.93-4.98c0,0,5.85-3.35,0.78-9.57
			c0,0-6.7-3.35-2.59-9.86c0,0-4.4,2.01-3.83,4.98c0,0,3.83,7.18-1.24,9.77c0,0-9.86,5.65-13.5,5.84
			c-3.64,0.19-10.34-0.67-7.47-4.21c0,0,0-2.59,10.63-3.26c0,0,7.95-3.54,9.29-8.71c0,0,10.44-14.36,10.72-14.36
			s6.22-2.01,11.11,4.88c0,0,1.34-4.21-6.7-7.37l2.97-4.79c0,0,1.44-2.59-1.24-0.57c0,0-4.5,5.27-6.61,3.93c0,0-6.32-6.89-13.6-3.93
			c0,0-8.62,3.26-14.36-1.44s0.1,2.39,0.1,2.39s4.31,4.6,13.6,2.78c0,0,13.69-0.48,9.29,5.07l-12.54,16.37c0,0-5.65,5.46-11.78,1.34
			c-6.13-4.12-12.16-1.34-12.16-1.34s-5.74,4.69-2.39,5.36c0,0,7.28-5.94,13.88-0.77c0,0,3.83,2.97-2.2,3.35
			c-6.03,0.38-9.19,3.73-9.19,3.73s-16.56,1.91-8.33-7.18c0,0,5.55-2.87,8.04-7.95c0,0,5.46-3.35,12.93-0.57
			c0,0-5.74-7.18-20.59-0.86c0,0-12.16,3.45-4.88-6.32c0,0,1.82-4.31,4.98-5.74c0,0,8.81,9.29,14.46,5.27c0,0-17.62-2.3-12.16-19.34
			c0,0,1.53-6.7,4.02-7.18c0,0-0.38-6.32,5.94-10.53c0,0,5.55,16.09,12.64,15.03c0,0,4.21,3.45,13.98-7.76c0,0,3.54-4.98,10.72,0
			c0,0,7.09,1.24,7.47-1.72c0,0-7.95-0.1-9-3.16c0,0-5.84-2.68-11.2,2.68c0,0-10.44,13.02-18.86,0.57c0,0-4.98-9.19-2.49-16.09
			c0,0,12.54-9.77,14.94-11.59c2.39-1.82-0.38-2.3-0.38-2.3l-3.45,1.44c0,0-3.06-6.8,4.6-9.29c0,0,6.8-0.29,7.66-1.63
			c0,0,1.82-6.51,6.61-6.03c0,0,10.63-2.78,13.21,7.66c0,0,4.12,4.12,9.29-0.48c0,0,1.53-4.69,6.7-3.35c0,0,3.06-1.53,0.38-3.35
			c0,0-4.79-1.82-7.95,1.72c0,0-4.12,7.85-7.28-0.29c0,0-0.67-5.84-10.34-4.79c0,0-0.29-7.56,3.73-6.03c0,0,2.39-0.29,4.6-3.45
			c0,0,9.19-8.43,5.55,0.57l-4.88,3.73c0,0,4.69,0.96,7.66-3.64c0,0,4.12-9,13.69-5.74c0,0,4.4,0.29,6.22-4.21
			c0,0,5.94-6.32,11.87-1.53c0,0,2.2-1.72-0.19-3.26c0,0-8.9-4.02-13.4,2.49c0,0-2.97,3.35-3.73,2.97c0,0,5.94-13.5,16.09-9.29
			c0,0,7.47,3.06,11.59,3.06c0,0,14.55,5.07,16.76,9.96c2.2,4.88,9.77,9.57,15.41,10.82c0,0,14.36,6.22,14.17,16.37
			c0,0,3.73,16.18,2.78,19.91c0,0,0.67,11.39,4.5,9.86c0,0-3.54-7.85-1.72-9.48c0,0,9.67,6.32,6.41,16.09c0,0-4.02,6.89,0.67,15.89
			c0,0,8.04,7.56,4.88,14.46c0,0-0.86,4.4-3.83-1.53c0,0-0.57-7.09-7.66-7.37c0,0-2.39,0.19-6.41,2.39
			C1016.86,466.2,1015.42,466.78,1013.89,463.62z"/>
		<path class="st0" d="M851.79,479.89c0,0,0.48-8.43,8.04-17.04l1.24-9.67c0,0-4.21,0.19-8.52-3.54
			c-4.31-3.73-10.05-2.01-10.05-2.01l-5.94,1.63c0,0,2.87-5.65,11.01-4.98c0,0,6.7,0.77,8.62,3.83c0,0,5.17,2.2,7.28-2.2
			c0,0,2.11-11.11,7.18-12.35c0,0,4.31-2.78,2.59-7.85c0,0,3.16-6.03-1.15-7.76c0,0-5.46-1.53-5.27-3.64c0,0,6.99,0.1,9.48,4.12
			c0,0,0.48,2.2,3.45,0l5.27-3.54c0,0-2.08-12.83,4.21-12.83c0.67,0,4.69-4.6,8.9-3.35c0,0,1.34-6.61,8.04-5.84
			c0,0,1.63-1.44,2.68-4.12c0,0-0.67-6.99,5.46-6.03c0,0,0.67,1.34,3.26-1.63c0,0,3.83-5.17,7.95-4.69c0,0,4.12,0.67,2.39-4.02
			s-6.51-3.93-6.51-3.93s-0.48-2.87,2.49-2.78c0,0-0.29-2.01,5.94,1.82c0,0,4.31-4.4,7.85-2.97c0,0,0.38,1.44-1.44,2.2
			c0,0-5.94,2.87-5.07,6.13c0,0-0.96,3.64,9.38,0.96c0,0,5.84-8.14,4.02-8.86c0,0-5.07-10.77-22.02-7.04c0,0-16.09,1.24-18.38-2.68
			c0,0-7.95-6.41-17.71,3.06c0,0,8.9-3.06,15.22,2.2c0,0,0.48,3.83,6.51,1.05c0,0,9.96-2.87,7.95,4.31c0,0-5.17-4.5-9.96,0
			c0,0-2.59,1.53-8.62-3.93c0,0-6.13-3.45-12.54,0.48c0,0-5.55,4.4-12.45,3.35c0,0-11.11-2.3-14.94,5.74c0,0-2.2,3.16-8.33,4.21
			c0,0-9.96,2.59-15.8,15.22c0,0-6.41,12.64-11.87,16.56c0,0-7.85,5.94-6.22,18.67c0,0,5.2-3.07,6.7-3.64
			c3.26-1.24,1.91-1.34,3.83-9c0,0,0.1-6.51,7.28-8.52c7.18-2.01-0.67,2.11-0.67,2.11s-4.79,3.54-4.12,11.59
			c0,0,0.67,4.88-5.84,7.95c0,0-10.82,4.79-11.68,11.78c0,0-6.8,8.43-1.05,11.78l7.76,7.56c0,0,2.01,1.91,7.47-1.53
			c0,0,4.12,0.19,1.72,3.93c0,0-1.05,3.06-8.23,4.4c0,0-2.59,6.61,2.87,8.43c0,0,6.7-4.79,1.34-6.7c0,0,3.06-3.83,5.17,2.59
			c0,0-1.44,11.78,6.7,14.27c0,0,3.45,3.35,8.14-1.63c0,0-6.03-3.54-3.35-6.61c0,0,1.44-0.67,1.15,0.96c0,0-2.11,2.2,3.16,2.3
			c0,0,4.02-0.38,4.88,0.86C849.5,480.28,851.79,479.89,851.79,479.89z"/>
		<path d="M900.72,391.43c0,0,5.17-6.13,2.97-11.01c-2.2-4.88,11.11-3.06,11.11-3.06s2.01,2.01-1.34,2.11
			c-3.35,0.1-5.4,1.15-5.4,1.15s-1.88,1.34-1.4,5.46C907.13,390.18,900.72,391.43,900.72,391.43z"/>
		<path d="M889.13,397.94c0,0-6.99-4.31-9.57,5.07c0,0-1.05,3.16-7.85,0.57c0,0-3.35,0.57,0,3.93c0,0,8.81,3.73,10.53-2.78
			c0,0,0.96-6.41,4.79-5.74C890.86,399.66,888.85,399.47,889.13,397.94z"/>
		<path d="M870.22,395.54c0,0,2.06,2.78,2.06-0.57c0,0,0.71-10.92,6.51-10.15c1.44,0.19,5.07,0,6.41-3.35c0,0,0.96-5.74,4.69-1.34
			c0,0,3.45,5.36,3.26,6.13c0,0,1.82-9.38-4.88-9.86c0,0-4.34-5.74,5.11-5.55c0,0,5.42,2.97,7.34,4.5c0,0,5.17,1.05,6.8-2.97
			c0,0-5.17,2.68-6.8,0.67c0,0-4.12-4.79-8.43-5.36c0,0-6.22-0.19-8.43,6.32c0,0-0.29,7.53-3.16,7.98c0,0-6.8-1.51-8.04,2.24
			C872.67,384.22,868.16,390.76,870.22,395.54z"/>
		<path d="M835.8,396.95c0,0-1.24,4.43,1.63,0.6c0,0,8.04-18,15.89-16.47c0,0,9,5.85,12.16-0.09c0,0,6.13-7.56,9.77-3.97
			c0,0,4.88-3.4,0-4.07c0,0-7.37-0.28-9.77,4.07c0,0-3.73,4.45-7.66,3.01c0,0-5.94-3.83-11.59,0.86
			C846.24,380.89,837.82,386.39,835.8,396.95z"/>
		<path d="M851.12,392c0,0,1.15-10.05,11.01-5.17c0,0,4.97,3.68,5.46,6.61c0.1,0.57,1.72,9-4.12,6.99c0,0,4.21-5.62,0.38-7.31
			c0,0-1.25-0.73-4.36,1.85s-1.29-1.05-1.29-1.05s4.3-3.93,1.29-4.5c-3.01-0.57-5.98,1.05-5.98,1.05S852.18,393.53,851.12,392z"/>
		<path d="M846.15,435.95c0,0-0.67-3.64,1.44-0.86c2.11,2.78,3.64,5.46,9.48,4.69c5.84-0.77,0,2.3,0,2.3
			S849.59,444.95,846.15,435.95z"/>
		<path d="M827.09,446.44c-0.19-1.52-1.21-3.85-5.87-2.87c-0.1,0.02-0.19,0.06-0.28,0.11c-0.78,0.47-5.11,2.94-5.72,0.5
			c0,0,0.09-7.42,10.34-5.05c0.18,0.04,0.35,0.15,0.47,0.29c0.82,0.94,4.13,4.36,5.07-0.69c0.01-0.04,0.02-0.08,0.03-0.12
			c0.32-0.87,4.38-11.23,10.99-0.33c0,0,0.1,1.79-2.49,0.45c-2.59-1.34-4-1.95-4.79-1.15c-2.87,2.9,0,0-3.83,5.84
			c-3.11,4.74-1.93,3.55-2.86,3.75C827.66,447.28,827.15,446.95,827.09,446.44z"/>
		<path d="M831.69,474.24c0,0,2.01,2.49,2.3-0.96c0,0-1.24-9.29,3.35-5.36c0,0,7.56,9.86,10.91,4.4c3.35-5.46-0.86-2.3-0.86-2.3
			s-2.2,1.24-5.27-2.2c0,0-5.17-7.47-8.81-6.13C833.32,461.7,828.34,467.64,831.69,474.24z"/>
		<path d="M840.04,426.09c0,0-1.07,4.6,2.09,0.86c0,0,5.46-11.3,10.73-6.03c0,0,6.8,9.86,10.43,6.99c3.64-2.87,0-2.2,0-2.2
			s-3.54,1.15-4.79-2.39c0,0-4.19-6.32-6.11-5.46c-1.93,0.86-0.49-2.3-0.49-2.3l6.99-5.46c0,0,3.26-3.73-2.01-2.49
			c0,0-7.19,5.94-10.82,9.48c0,0-2.01,3.26-7.18,0c0,0-3.83-4.09,3.26-8.51c0,0,9.67-8.34,8.23-10.93
			c-1.44-2.59-2.49,0.38-2.49,0.38s-4.12,6.32-9.1,8.81c0,0-8.2,5.55-3.24,10.34c0,0,1.03,1.91,3.72,4.12
			c2.68,2.2,0.79,4.12,0.79,4.12V426.09z"/>
		<path d="M891.82,479.8c0,0-5.36,1.15-1.15-2.01c0,0,3.93-2.39,3.64-7.66c0,0,0.29-3.06,1.72,0
			C896.03,470.13,898.04,477.98,891.82,479.8z"/>
		<path class="st1" d="M930.4,489.76c0,0,0.86,4.98,2.59,0c0,0-0.29-4.88,2.97-10.53c0,0,3.35-10.53-1.63-16.37
			c0,0-4.5-8.33-7.18-8.62c0,0-4.12-3.45,0-5.94c0,0,9.29-5.68,6.99-10.02c0,0-0.29-6.45-9.29-3.57s0.19-1.04-0.38-0.66
			c-0.57,0.37-4.31,0.95-7.95-0.87c-3.64-1.82,0,1.91,0,1.91s4.31,3.68,10.72,2.59c0,0,5.55,0.38,2.01,4.4c0,0-2.74,2.23-3.27,3.54
			c-0.46,1.15-5.44,2.97-4.48,6.7c0,0,1.63,3.73,6.7,8.33c0,0,4.88,4.02,5.74,9.77c0,0-0.1,7.09-2.87,10.34L930.4,489.76z"/>
		<path d="M939.21,447.82c0,0-4.21-5.94,0.96-2.78c0,0,0.86,2.07,2.78-0.93c0,0,5.94-3.93,1.15,1.85c0,0-2.01,2.14-3.93,5.78
			c0,0-4.1,5.17-2.58-0.67L939.21,447.82z"/>
		<path d="M944.92,435.37c0,0,1.08,6.89,2.81-0.48c0,0,0-8.33,1.72-7.95c0,0,2.68,1.05,2.87,3.06c0,0,3.26,0.26,1.05-3.08
			c0,0-3.74-6.52-7.42,0C945.96,426.93,944.41,432.21,944.92,435.37z"/>
		<path d="M906.18,426.66c0,0,4.06,0.54,0.36,2.76c-0.23,0.14-0.43,0.31-0.59,0.52c-0.81,1.07-3.62,4.5-6.19,4.1
			c-0.67-0.1-4.83,2.26-4.6-4.65c0-0.09,0.01-0.19,0.03-0.29c0.2-1.38,1.88-12.17,4.48-13.07c0,0,2.01-2.74,4.93-1.79
			c0.46,0.15,0.83,0.48,1.07,0.9c0.52,0.89,1.91,2.48,5.01,1.85c3.63-0.74,1.28,1.06,0.57,1.56c-0.13,0.09-0.26,0.16-0.41,0.22
			c-0.84,0.33-3.92,1.36-6.29-0.09c0,0-2.3-1.31-4.4,3.57c0,0-4.88,11.68,0.57,8.04C900.72,430.3,904.88,426.28,906.18,426.66z"/>
		<path d="M935.48,386.03c0,0-2.79-2.04,1.39-2.25c0.25-0.01,0.5,0.03,0.73,0.11c1.25,0.45,4.77,1.96,6.59,1
			c0,0,1.22,0.95,3.73-2.28c0,0,3.14-4.06,6.79-2.76c0.14,0.05,0.26,0.11,0.39,0.19c0.98,0.61,5.48,3.55,5.66,5.98
			c0,0,0.29,3.58-1.82,0.99c0,0-3.26-3.82-7.21-3.88c-1.33-0.02-2.42,1.2-2,2.46c0.17,0.52,0.58,0.94,1.46,1.04
			c0,0,4.88,1.91,4.98,3.35c0.1,1.44,1.15,2.59-1.44,1.91c0,0-5.75-3-8.76-3.45C945.96,388.46,939.11,389.51,935.48,386.03z"/>
		<path d="M918.9,436.53c0,0,5.41,2.97,10.56,1.77c0,0,3.39,3.01-3.48,7.32c0,0-8.55,3.91-0.82,11.96c7.73,8.05,0.82-0.37,0.82-0.37
			s11.39,11.77,6.8,20.29c0,0-3.05,5.96-2.09,14.47c0,0,2.64-0.82,2.47-4.77c0,0,0.29-3.89,3.32-10.05c0,0,3.04-13.16-7.36-21.72
			c0,0-5.85-4.18-1.97-7.12s6.93-6.78,6.93-6.78s0.97-6.88-1.93-6.7c0,0-2.61,0.48-8.32-0.56c-0.7-0.13-7.31-1.09-7.31-1.09
			L918.9,436.53z"/>
		<path d="M965.72,378.61c-0.79-0.37-1.46,0.7-0.77,1.23c2.47,1.9,5.92,5.51,7.38,11.58c0,0,1.53,9.48,5.84,10.44
			c0,0,4.31,1.44,4.69,7.85c0,0,0.09,7.57,2.5,10.08c0.21,0.22,0.57,0.27,0.84,0.12c0.45-0.25,0.98-0.94,0.72-2.84
			c-0.07-0.51,0.4-0.94,0.9-0.81c1.36,0.35,3.53,0.73,4.04-0.24c0,0,0.57-2.16-1.82-1.99c0,0-4.04-0.18-4.95-5.32
			c-0.01-0.08,0-0.17,0.04-0.24c0.13-0.3,0.28-1.41-1.5-4.98c-0.2-0.4,0-0.89,0.43-1.02c2.37-0.73,9.29-2.02,11.91,6.49
			c0.01,0.05,0.03,0.09,0.06,0.13c0.34,0.59,3.05,4.99,4.24-0.85c0.02-0.11,0.02-0.23-0.01-0.34c-0.38-1.43-3.42-11.32-14.8-8.83
			c0,0-6.7,2.11-9-4.98c0,0-2.2-9.19-6.03-12.45C970.42,381.66,968.05,379.71,965.72,378.61z"/>
		<path d="M979.71,377.02c0,0,6.73,8.06,7.28,11.34c0.1,0.57,4.79,8.9,9.67,7.76c0,0,9.96-0.29,10.63,9.57c0,0,1.34,8.04,4.79,10.44
			c0,0,4.77,3.03,2.46-2.14c-0.1-0.21-0.22-0.42-0.36-0.61c-0.75-1-3.37-4.74-3.53-8.84c0,0-1.07-10.34-11.2-11.43
			c0,0-7.09,1.18-8.71-3.6C990.72,389.51,981.34,374.96,979.71,377.02z"/>
		<path d="M1008.24,419.1c0,0-4.55,2.66,0.51,10.8c0.05,0.07,0.08,0.15,0.11,0.23c0.33,0.9,2.33,6.61,1.01,10.22
			c0,0-4.72,8.49,1.21,13.95c0.09,0.08,0.19,0.15,0.29,0.21c0.72,0.39,3.5,1.82,0.79-1.32c-0.06-0.07-0.12-0.15-0.17-0.24
			c-0.47-0.86-2.96-5.73-0.52-8.81c0.13-0.16,0.23-0.34,0.27-0.53c0.03-0.14,0.08-0.33,0.14-0.53c0.4-1.32,2.28-1.31,2.65,0.03
			c0.54,1.96,1.29,4.79,1.41,5.7c0.04,0.27,0.16,0.52,0.34,0.72c0.79,0.86,2.44,2.37,2-0.65c0,0-2.82-7.03-3.83-12.83
			c-0.66-3.77-0.67-3.83-2.04-6.11c-0.04-0.07-0.09-0.14-0.14-0.2c-0.45-0.52-2.7-3.23-3.15-5.49c-0.03-0.14-0.03-0.27-0.02-0.4
			C1009.24,422.68,1009.74,416.93,1008.24,419.1z"/>
		<path d="M995.99,420.72c0,0-5.33-1.12-2.78,7.18c0.38,1.24,3.69,4.27,3.45,8.99c-0.1,1.83-0.92,9.95-4.69,8.82
			c-0.96-0.29-0.19-1.44-3.64-1.34c-1.53,0.04-2.11,0.38-3.83,7.95c0,0-2.01,2.97-1.72-2.68c0,0-0.25-2.02,0.01-4.24
			c0.1-0.83-0.92-1.31-1.47-0.68c-1.12,1.27-2.23,3.03-1.98,4.83c0,0-0.77,6.32,2.87,7.18c0,0,5.4,2.01,5.77-5.17
			c0,0-0.87-4.07,4.94-2.61c0.09,0.02,0.17,0.03,0.26,0.02c0.63-0.05,3.13-0.55,5.84-5.29c0.02-0.04,0.04-0.08,0.06-0.12
			c0.32-0.84,3.83-10.2-0.02-11.43c0,0-3.26-4.4-3.54-6.32c0,0-1.24-0.57-0.48-2.49C995.79,421.39,998.57,421.68,995.99,420.72z"/>
	</g>
</g>
<g id="brainstorm">
	<g>
		<path class="st0" d="M1561.5,344.77l15.17-59.88c0.12-0.46,0.53-0.78,1-0.78h41.09c0,0,12.32-0.1,8.97,14.43l-11.28,46.9
			c-0.11,0.47-0.53,0.79-1.01,0.79h-15.06c-0.67,0-1.16-0.62-1.01-1.28l9.94-41.68c0,0-0.38-1.96-1.29,0l-10.2,42
			c-0.11,0.46-0.53,0.79-1.01,0.79h-14.94c-0.68,0-1.17-0.64-1-1.29l10.88-42.25c0,0-0.31-2.04-1.44-0.09l-10.97,42.67
			c-0.12,0.45-0.52,0.77-0.99,0.78l-15.86,0.17C1561.83,346.06,1561.33,345.43,1561.5,344.77z"/>
		<path class="st0" d="M1523.11,345.26l15.49-61.22c0.04-0.14,0.16-0.24,0.31-0.24h23.63c0,0,11.44,0,10.02,10.26
			c0,0.01,0,0.03-0.01,0.04l-4.11,17.84c0,0-1.07,7.92-8.51,10.16c-0.17,0.05-0.28,0.22-0.25,0.39l4.18,22.8
			c0.04,0.19-0.28,0.76-0.47,0.76h-17.08c-0.67,0.01-1.28-0.66-1.41-1.32l-0.64-3.41c-0.06-0.33-0.53-0.35-0.61-0.03l-1.2,4.32
			c-0.04,0.14-0.18,0.43-0.32,0.43h-18.86C1523.08,346.04,1523.06,345.46,1523.11,345.26z"/>
		<path class="st0" d="M1488.16,338.17l11.06-44.81c0,0,3.35-9.56,12.38-9.56c8.5,0,14.7,0,14.7,0s11.22,1.03,7.86,14.16l-9.29,37.2
			c0,0-2.02,11.38-9.35,10.89h-20.43C1495.1,346.05,1486.68,345.21,1488.16,338.17z"/>
		<path class="st0" d="M1460.48,343.53l10.64-42.07c0.17-0.67-0.33-1.31-1.02-1.32l-3.6-0.03c-0.69-0.01-1.2-0.67-1.01-1.34
			l3.83-14.05c0.13-0.46,0.55-0.78,1.02-0.78l27.54,0.08c0.67,0,1.16,0.61,1.03,1.26l-2.83,14.22c-0.1,0.49-0.53,0.85-1.03,0.85
			l-4.74,0.01c-0.48,0-0.9,0.33-1.02,0.79l-11.5,44.08c-0.12,0.47-0.55,0.8-1.04,0.79l-14.39,0
			C1461.17,346.04,1460.19,344.68,1460.48,343.53z"/>
		<path class="st0" d="M1420.76,324.46l14.25,0.14c0.98,0.01,1.74,0.86,1.62,1.83c-0.18,1.54-0.3,3.49,0.25,3.41
			c0,0,1.55,1.58,1.97-6c0.03-0.57-0.4-1.06-0.97-1.1l-15.81-0.87c-0.65-0.04-1.11-0.67-0.94-1.3l7.81-28.85
			c0,0,1.3-7.93,11.86-7.93h12.98c0.03,0,0.05,0,0.08,0c0.72-0.06,12.22-0.91,9.98,9.37l-2.5,11.43c-0.1,0.48-0.53,0.82-1.02,0.81
			l-14.77-0.25c-0.64-0.01-1.1-0.59-0.99-1.22c0.28-1.5,0.55-3.83-0.54-3.3c0,0-0.51-1.5-1.79,5.26c-0.12,0.62,0.35,1.22,0.99,1.23
			l15.73,0.38c0.51,0.01,0.86,0.51,0.71,0.99l-6.25,28.28c0,0-1.07,9.14-8.7,9.28h-20.49c-0.06,0-0.42,0.01-0.48,0
			c-1.09-0.21-11.15-3.08-3.96-20.95C1419.94,324.72,1420.33,324.46,1420.76,324.46z"/>
		<path class="st0" d="M1378.05,344.61l15.04-60.18c0.11-0.46,0.52-0.78,1-0.79l20.61-0.22c0,0,15.54-0.45,10.8,13.48l-12.32,47.77
			c-0.13,0.52-0.75,1.4-1.28,1.4h-15.19c-0.42,0-0.94-0.91-0.83-1.32l11.19-43.59c0,0-0.14-1.15-0.57,0.1l-11.27,43.28
			c-0.15,0.59-0.77,1.53-1.38,1.53h-15C1378.35,346.07,1377.93,345.08,1378.05,344.61z"/>
		<path class="st0" d="M1359.27,344.57l14.61-59.94c0.12-0.49,0.56-0.83,1.06-0.83h15.99c0.46,0,0.8,0.44,0.69,0.89l-15.09,60.02
			c-0.14,0.58-0.49,1.37-1.09,1.37h-15.24C1359.62,346.07,1359.13,345.14,1359.27,344.57z"/>
		<path class="st0" d="M1322.44,346.07c-0.68,0-1.43-1.02-1.27-1.68l12.98-51.37c0,0,1.3-9.22,12.64-9.22h12.45
			c0.04,0,0.07,0,0.11-0.01c0.93-0.11,15.15-1.56,9.66,14.95c-0.01,0.02-0.01,0.04-0.02,0.06l-11.36,45.84
			c-0.1,0.6-0.69,1.42-1.3,1.42h-15.13c-0.68,0-1.29-1.02-1.13-1.68l4.78-19.04c0,0,0-1.39-0.75-0.01l-5.06,19.56
			c-0.12,0.46-0.65,1.17-1.13,1.17H1322.44z"/>
		<path class="st0" d="M1283.22,345.12l14.36-60.98c0.05-0.21,0.23-0.35,0.44-0.35h20.92c0,0,15.4-1.26,12.66,11.13
			c-2.42,10.91-3.7,15.79-3.82,16.19c-0.01,0.02-0.01,0.03-0.01,0.05c-0.09,0.54-1.66,9.29-7.98,10.5
			c-0.24,0.05-0.41,0.27-0.37,0.51l3.77,22.98c0.05,0.28-0.21,0.91-0.49,0.91h-16.05c-0.89,0-1.88-1.01-2-1.89l-0.6-4.39
			c-0.07-0.49-0.75-0.54-0.89-0.06l-1.3,4.55c-0.24,0.84-0.95,1.8-1.82,1.8h-16.44C1283.31,346.07,1283.16,345.41,1283.22,345.12z"
			/>
		<path class="st0" d="M1244.99,344.48l15.42-59.9c0.11-0.44,0.51-0.75,0.96-0.75h22.31c0,0,13.87-1.52,10.84,11.58
			c-2.85,12.32-2.78,12.02-2.78,12.02s-1.16,5.75-4.83,7.23c-0.56,0.23-0.84,0.87-0.55,1.4c0.79,1.4,1.98,4.14,0.73,9.71
			c-1.73,7.73-1.13,4.99-1.93,7.76c-0.03,0.09-0.95,3.09-1.07,3.36c-0.59,1.33-1.64,9.61-10.96,9.18h-27.26
			C1245.23,346.07,1244.82,345.11,1244.99,344.48z"/>
		<path d="M1247.73,342.8l14.94-56.55h22.85c0,0,9.96-1.15,7.02,10.09c-2.94,11.23-2.43,9.57-2.43,9.57s-1.15,7.79-9.19,7.91
			c0,0,6.38,2.3,4.47,10.21c-1.91,7.91-2.68,10.72-2.68,10.72s-1.28,8.71-10.72,8.04H1247.73z"/>
		<path d="M1285.52,342.8l14.43-56.55h21.06c0,0,10.72-1.15,8.43,9.32s-3.7,14.17-3.7,14.17s-0.64,9.7-9.45,10.6l4.09,22.47
			l-13.79,0.4l-2.3-16.1l-4.21,15.7H1285.52z"/>
		<path d="M1324.07,342.8l12-48.13c0,0,1.29-8.43,12.51-8.43s12.38,0,12.38,0s10.01,0,5.74,12.89l-10.85,43.66h-13.66l4.72-19.66
			c0,0-1.53-4.21-3.96,0.13l-5.49,19.53H1324.07z"/>
		<polygon points="1361.35,342.8 1375.13,286.24 1389.3,286.24 1374.88,342.8 		"/>
		<path d="M1380.5,342.8l14.3-56.55l22.21-0.21c0,0,9.83,0.21,6.77,11.19l-11.87,45.57h-14.04l11.11-44.04c0,0-1.02-3.06-3.45,0
			l-11.49,44.04H1380.5z"/>
		<path d="M1421.35,326.97h13.03c0,0-1.11,5.11,2.5,5.36c0,0,3.74,1.15,4.77-10.6l-18.51-1.15l7.28-27.06c0,0,0.78-7.28,11.23-7.28
			h12.89c0,0,9.32-1.4,7.02,8.3l-2.04,8.68l-13.21-0.13c0,0,1.85-6.51-2.49-5.87c0,0-2.29-1.54-4.21,11.36l17.87,0.68l-5.87,24.85
			c0,0-1.14,8.68-6.13,8.68h-20.55C1424.92,342.8,1415.35,343.31,1421.35,326.97z"/>
		<polygon points="1462.84,342.8 1473.94,297.73 1467.82,297.73 1471.01,286.17 1496.54,286.24 1494.11,297.86 1487.6,297.73 
			1475.86,342.8 		"/>
		<path d="M1490.67,336.67l10.21-41.36c0,0,2.44-9.06,10.85-9.06s14.55,0,14.55,0s8.68,0.64,5.36,12.64l-8.55,34.21
			c0,0-1.85,10.12-7.66,9.7h-20.3C1495.13,342.8,1489.26,342.36,1490.67,336.67z"/>
		<path d="M1526.16,342.8l14.55-56.55h21.45c0,0,10.26,0.27,7.66,10.34l-3.7,15.45c0,0-1.15,6.89-9.06,8.68l4.34,22.09l-14.3,0.14
			l-2.55-16.1l-3.83,16.1L1526.16,342.8z"/>
		<path d="M1564.07,342.94l14.68-56.77h39.06c0,0,10.98,0.2,7.66,13.48l-10.47,43.29h-13.4l9.7-41.89c0,0-1.4-5.11-4.6,0.13
			l-10.21,41.62h-13.28l10.6-41.87c0,0-1.91-5.62-4.98-0.26l-10.85,42.27H1564.07z"/>
		<path class="st0" d="M1265.22,331.44l3.06-11.23c0,0,4.09-0.38,3.19,3.19l-1.53,5.74
			C1269.94,329.14,1268.92,332.97,1265.22,331.44z"/>
		<path class="st0" d="M1274.03,296.9l-3.06,11.23c3.7,1.53,4.72-2.3,4.72-2.3S1280.41,294.92,1274.03,296.9z"/>
		<path class="st0" d="M1308.18,308.02l3.06-11.23c0,0,4.09-0.38,3.19,3.19l-1.53,5.74C1312.9,305.73,1311.88,309.56,1308.18,308.02
			z"/>
		<path class="st0" d="M1549.07,308.71l3.06-11.23c0,0,4.09-0.38,3.19,3.19l-1.53,5.74
			C1553.79,306.41,1552.77,310.24,1549.07,308.71z"/>
		<path class="st0" d="M1506.62,330.96l7.4-32.13c0,0,2.04-3.36,3.57,0l-7.91,32.13C1509.69,330.96,1508.16,334.32,1506.62,330.96z"
			/>
		<path class="st0" d="M1347.09,309.14l2.3-10.38c0,0,1.28-3.06,3.45,0l-2.17,10.38H1347.09z"/>
	</g>
</g>
<g id="cerveau_00000010301331277647986020000004493777413617797004_">
	<g id="fond_blanc">
		<path class="st0" d="M998.62,120.97c0,0,6.1-1.03,7.94-4.74c0,0,4.02-5.38,15.85-6.07c0,0,6.04,1.68,10.44-4.14
			c0,0,10.55-14.1,26.56-5.14c0,0,4.6,4.37,16.15,2.26c11.54-2.11,15.51,2.22,18.95,4.78c0,0,2.91,4.68,6.46,3.14
			c0,0,7.39-2.11,14.38,1.49c0,0,6.1,2.28,10.09,2.14c0,0,9.89,0.74,17.66,13.07c0,0,4.13,6.22,14.44,8.03
			c0,0,11.71,4.96,13.48,17.08c0,0,0.74,7.18,1.66,11.37c0,0,0.53,3.87,0.25,6.58c0,0,11.15,4.42,10.6,17.99
			c0,0-4.75,12.79,1.53,17.49c0,0,8.47,9,1.69,19.59c0,0-3.9,4.01-7.09-2.12c0,0-0.98-0.59-0.89,2.3
			c0.09,2.89-4.09,18.06-23.04,23.94c0,0-6.57,0.57-13.02-5.55c0,0-3.32-2.94-4.98-1.09c-1.66,1.85-0.54,4.79-0.54,4.79
			s1.11,7.47-6.16,7.53c-7.28,0.06-10.53-1.91-10.34-1.91c0.19,0-5.65-4.48-9.85-1.95c0,0-10.96,2.21-10.64-2.58
			c0,0-2.62,6.7-13.76,4.56c0,0-11.56-7.05-20.54-1.43c0,0-12.68,6.19-13.64-6.13c0,0-18.19,8.57-25.62-0.19
			c0,0-15.3,4.53-21.23-2.55c0,0-0.32-4.98,3.32-6.7c0,0,5.87-4.66,5.55-6.06c0,0-11.43,2.23-17.04,0.57c0,0-13.34,14.36-21.96-6.83
			c0,0-10.09,3.57-10.28-11.49c0,0,2.17-5.36-6.26-11.36c0,0-7.02-5.11-2.23-13.34c0,0,7.6-8.36,6.19-17.55
			c0,0,0.83-12.57,7.34-16.85c0,0,8.8-9.67,10.62-16.23C980.67,137.66,989.48,123.66,998.62,120.97z"/>
	</g>
	<g id="coutour_noir_00000041290397163789496220000008830385201711219616_">
		<path class="st1" d="M1011.76,201.45c-4.09,0.63-8.38-3.69-8.38-3.69c-4.38-3.68-11.32-1.56-11.32-1.56
			c-8.3,3.89-2.62-0.75-2.62-0.75c8.17-6.11,17.73,1.21,17.73,1.21s6.27,2.09,7.27-3.77s4.32-9.44,4.32-9.44
			c3.27-2.09,4.73-4.02,4.73-4.02c4.46-12.43-4.46-14.81-4.46-14.81c-4.17-2.73,0.79-1.8,0.79-1.8c5.11,0.31,7.09,4.13,7.09,4.13
			c0.77,2.53,6.17-2.04,6.17-2.04c3.02-2.15,2.33-4.45,2.33-4.45c-0.87-11.49,11.66-13.69,11.66-13.69
			c1.56-0.27,2.52-1.87,2.52-1.87c0.4-2.47,4.98-3.73,4.98-3.73c4.18,0.55,4.95-5.34,4.95-5.34c0.52-5.17,4.99-4.9,4.99-4.9
			c2.25,0.02,3.72-1.57,3.72-1.57c4.06-5.45,7.95-4.69,7.95-4.69c3.39,0.52,2.68-3.07,2.68-3.07c-0.5-2.74-4.81-4.81-4.81-4.81
			c-6.4-2.38,0.5-2.84,0.5-2.84c1.25-0.5,5.94,1.82,5.94,1.82c2.65-2.65,5.96-3.24,5.96-3.24c3.57-0.27,0.46,2.47,0.46,2.47
			c-11.89,8.38-0.12,7.96-0.12,7.96c4.54-0.74,6.52-4.03,6.52-4.03c2.83-5.03,0.45-7.85,0.45-7.85c-5.23-7.73-17.71-5.4-17.71-5.4
			c-15.39,2.79-20.66-1.53-20.66-1.53c-6.71-5.52-13.21-1.85-16.33,0.64c-0.59,0.47-0.17,1.43,0.58,1.32
			c9.11-1.24,12.23,2.9,12.23,2.9c3.06,2.68,6.33,1.1,6.33,1.1c8.54-2.28,8.82,1.62,8.82,1.62c0.53,3.1-1.49,1.49-1.49,1.49
			c-4.28-2.24-7.52,0-7.52,0s-3.01,2.88-8.35-1.81c-5.34-4.69-13.29-1.11-13.29-1.11c-6.25,5.18-14.06,3.59-14.06,3.59
			c-8.56-1.44-12.44,3.55-12.44,3.55c-2.81,4.59-9.34,6.45-9.34,6.45c-9.73,2.68-15.68,13.97-15.68,13.97
			c-4.95,12.04-13.6,18.98-13.6,18.98c-4.79,5.58-5.35,12.99-5.35,12.99c-0.25,4.91,1.7,3.74,1.7,3.74c2.6-1.95,4.29-2.35,4.29-2.35
			c3.5-1.1,3.67-4.28,3.67-4.28c1.18-12.59,8.47-13.7,8.47-13.7c5.05-1.08,1.08,1.08,1.08,1.08c-5.74,2.56-6,10.02-6,10.02
			s1.27,8.17-4.69,9.98c-5.96,1.81-10.7,8.29-10.7,8.29c-0.96,2.62-3.15,5.53-3.15,5.53c-4.55,5.6-0.62,9.94-0.62,9.94
			c2.93,1.12,6.99,6.64,6.99,6.64c1.43,4.37,7.63,0.35,7.63,0.35c1.63-0.9,2.94,0,2.94,0c2.17,4.65-6.76,7.45-6.76,7.45
			c-2.23,0.69-1.95,2.01-1.95,2.01c-0.6,8.37,4.46,5.8,4.46,5.8c4.88-3.07,1.44-5.13,1.44-5.13c-3.25-0.47,0-1.58,0-1.58
			c3.13-1.6,3.84,4.98,3.84,4.98c2.18,18.38,12.76,12.99,12.76,12.99c2.24-1.43,1.04-2.58,1.04-2.58c-4.77-3.51-2.28-5.15-2.28-5.15
			c1.45-1.45,0.86,0.86,0.86,0.86c-0.57,1.45,1.53,1.53,1.53,1.53c3.83-0.46,6.86,1.05,6.86,1.05c3.49,1.86,3.51-1.38,3.51-1.38
			c-0.09-5.52,4.88-11.16,4.88-11.16C1011.21,212,1011.76,201.45,1011.76,201.45z M1007.83,190.33c0,0-7.85,2.87-10.98-5.81
			c-3.13-8.68,0.96-1.6,0.96-1.6s4.02,7.02,11.11,4.98C1016,185.86,1007.83,190.33,1007.83,190.33z M1017.28,149
			c-4.21,2.46-2.3-1.31-2.3-1.31c3.64-9.83-4.64-4.59-4.64-4.59c-1.56,1.56-4.87,1.65-1-1.36c3.87-3.01,1.49-3.69,1.49-3.69
			c-4.66-1.28-7.16,1.64-7.16,1.64c-3.84,3.11-0.5-3.11-0.5-3.11s4.79-7.09,12,0.77C1022.38,145.2,1017.28,149,1017.28,149z
			 M1037.83,147.38c0,0-2.43-1.28-4.85,4.21c0,0-0.51,7.28-10.28,4.53c0,0-5.89-3.46,0.51-3.96c0,0,4.66,2.33,6.89-1.13
			c0,0,2.17-7.87,8.43-5.12C1044.79,148.65,1037.83,147.38,1037.83,147.38z M1065.92,126.31c0.45,1.34-0.97,1.34-0.97,1.34
			s-9.84-0.98-7.63,6.47c0,0,0.94,2.88-3.4,4.75c-4.34,1.87-1.09-1.58-1.09-1.58s2.62-3.96,1.75-7.6c0,0-4.44-4.98,5.01-4.41
			C1059.6,125.29,1065.47,124.97,1065.92,126.31z M1034.58,124.2c0,0,1.98-15.96,15.89-4.28c0,0,1.93,2.63,6.45,1.28
			c0,0,3.57-0.95-0.45,1.79c0,0-3.13,2.29-11.04-2.94c0,0-4.27-3.75-7.34,1.16c0,0-2.13,2.22,3.11,4.08c0,0,3.97,1.58,2.85,7.04
			c0,0-0.16,5.85-2.59-1.49c0,0-4.28-8.7-5.91-0.42c0,0-1.75,4.19-6.86,2.91c0,0-4.09-1.91-5.62,9.51c0,0-0.57,4.91-2.62-0.64
			c0,0-0.89-12.51,8.23-12.38C1028.7,129.82,1033.04,132.88,1034.58,124.2z M986.77,144.5c8.23-23.68,20.11-17.23,20.11-17.23
			c4.53,2.23,7.79-0.7,7.79-0.7c4.98-6.32,10.09-5.35,10.09-5.35c4.4,0.26,2.94,2.48,2.94,2.48c-0.45,1.85-3,0.7-3,0.7
			c-3.7-0.77-7.6,3.89-7.6,3.89c-4.34,6.19-11.47,1.96-11.47,1.96c-7.2-4.85-17.04,14.6-17.04,14.6
			C984.95,150.18,986.77,144.5,986.77,144.5z M990.72,154.39c0,0,2.62-0.67,8.05-8.16c0,0,2.02-2.99,2.25,1.15
			c0,0,0.05,3.31-9.15,10.27c0,0-6.64,4.4-1.53,8.23c5.11,3.83,11.49-5.16,11.49-5.16s5.72-7.19,8.35-4.94s-5.99,7.16-5.99,7.16
			s-4.77,3.44-0.66,3.09c4.11-0.35,6.28,6.23,6.28,6.42s1.98,2.49,3.89,1.66c1.91-0.83,1.72,0.7,1.72,0.7s-2.04,7.53-11.04-5.04
			c0,0-5.19-7.24-11.58,5.36c0,0-2.98,4.98-1.95-1.15c0,0,1.69-3.79-3.69-7.19C981.79,163.4,984.46,157.82,990.72,154.39z
			 M977.77,194.03c0,0-5.04-7.6-7.6-1.98c0,0-4.27,7.6-4.27,0.45c0,0,0.31-9.38,12.18-3.64c0,0,2.48,2.34,3.7-1.86
			c0,0,3.33-11.51,10.35-1.51c0,0,2.8,3.24-1.35,1.84c0,0-3.64-7.02-10.02,6.19C980.77,193.52,979.04,197.86,977.77,194.03z
			 M999.4,219.95c-2.55,4.02-6.87,2.09-11.44-3.8c0,0-4.46-4.66-3.34,5.03c0,0,0.11,4.37-2.13,1.48c0,0-3.91-7.73,2.13-12.84
			c0,0,2.8-1.8,8.18,6.25c0,0,3.98,4.02,6.34,1.79C999.15,217.84,1001.96,215.93,999.4,219.95z"/>
		<path class="st1" d="M1179.73,190.93c3.17-9.98-4.65-15.41-4.65-15.41c-1.61-1.9-2.07,0-2.07,0c-0.47,2.28,1.55,6.96,1.55,6.96
			c0.94,2.71-0.96,1.39-0.96,1.39c-4.16-7.95-2.75-11.57-2.75-11.57c0.27-8.5-1.4-10.64-1.4-10.64c-1.5-2.2-1.54-7.41-1.54-7.41
			c-1.27-11.48-14.61-16.48-14.61-16.48s-7.81-2.68-11.08-5.87c-3.27-3.19-6.63-7.87-6.63-7.87c-4.16-5.32-10.45-6.18-10.45-6.18
			c-5.27-0.14-14.47-3.55-14.47-3.55c-9.63-5.18-15.97,7.47-15.97,7.47c-1.19,1.77,0.04,3.11,1.38,0.42
			c1.34-2.69,4.53-4.53,4.53-4.53c6.73-3.48,11.38,1.16,11.38,1.16c2.47,5.06-2.77,1.07-2.77,1.07c-5.82-2.75-9.07,2.03-9.07,2.03
			c-1.24,3.02-4.08,4.31-4.08,4.31c-3.74,1.1-8.87,0.11-8.87,0.11c-4.11-0.04-7.71,6.15-7.71,6.15c-1.26,2.48-4.63,3.7-4.95,3.65
			c-3.54-0.52,0.9-2.02,0.9-2.02c2.37-1.14,2.3-4.92,2.3-4.92s-1.68-3.64-5.39,1.68c-3.72,5.32-6.78,4.5-6.78,4.5
			c-2.7-0.01-2.81,3.11-2.81,3.11c-0.86,3.45,2.01,2.81,2.01,2.81c7.47,0.27,8.87,6.09,8.87,6.09c3.1,4.77,5.97,0,5.97,0
			c3.97-5.47,7.94-2.84,7.94-2.84c5.84,4.28-1.53,3.34-1.53,3.34c-3.59-0.13-4.1,2.31-4.1,2.31c-1.04,3.19-5.28,3.43-5.28,3.43
			c-4.3,0.88-5.57-4.22-5.57-4.22c-2.07-5.02-7.75-5.37-7.75-5.37c-8.68-1.2-9.66,3.74-9.66,3.74c-1.01,3.26-8.38,3.83-8.38,3.83
			c-8.09,1.44-5.8,8.31-5.8,8.31c0.67,1.8,3.08,0.21,3.08,0.21c4.27-1.1,0.33,2.61,0.33,2.61l-11.04,8.56
			c-4.09,2.94-3.68,5.08-3.68,5.08c-0.54,10.36,5.72,16.44,5.72,16.44c7.55,6.87,15.7-2.99,15.7-2.99
			c7.81-6.79,12.37-2.36,12.37-2.36c1.53,1.26,5.77,1.63,5.77,1.63c3.59,0.77,1.52,1.99,1.52,1.99c-2.98,2.47-8.42-0.89-8.42-0.89
			c-2.97-1.48-3.87-1-3.87-1c-2.77-0.53-8.51,6.03-8.51,6.03c-5.73,6.46-13.08,3.78-13.08,3.78c-5.31-2.87-8.47-11.54-8.47-11.54
			c-1.1-3.97-2.63-2.4-2.63-2.4c-2.25,1.57-3.75,5.03-3.75,5.03c-0.63,3.78-2.56,5.83-2.56,5.83c-1.88,3.66-2.85,7.56-2.85,7.56
			c-2.55,10.28,5.88,15.31,9.83,16.77c3.95,1.47,0.24,1.89,0.24,1.89c-3.73,0.55-10.3-5.11-10.3-5.11c-1.96-1.3-3.49,0.16-3.49,0.16
			c-4.28,3.93-5.41,8.99-5.41,8.99c0.24,4.74,8.57,1.23,8.57,1.23c9.63-4.18,15.94-1.37,15.94-1.37c3.73,2.2,0.9,2.08,0.9,2.08
			c-1.49-0.69-4.49-0.6-4.49-0.6c-6.36,0.14-7.09,3.06-7.09,3.06s-3.43,4.29-5.12,5.17c-1.69,0.88-3.44,3.61-3.44,3.61
			c-3,4.66,4.62,5.26,4.62,5.26c5.02,0.49,6.82-1.35,6.82-1.35c2.41-1.63,6.69-2.68,6.69-2.68c8.47-2.35-2.14-5.24-2.14-5.24
			c-1.38-0.4-5.18,0.35-7.4,2.03s-2.22,0.11-2.22,0.11s-1.26-1.69,4.33-4.98c5.59-3.29,11.24,1.67,11.24,1.67
			c0.36,1.3,3.53,1.43,3.53,1.43c6.76,0.34,10.73-6.01,10.73-6.01c2.48-3.23,10.35-13.53,10.35-13.53
			c3.47-6.03-11.66-4.37-11.66-4.37c-8.52,1.19-12.55-4.41-12.55-4.41c-3.99-5.42,1.07-0.97,1.07-0.97
			c4.84,3.56,13.76,1.5,13.76,1.5c7.97-2.37,12.83,3,12.83,3c2.42,2.51,5.94-1.22,5.94-1.22c7.44-6.47,1.32,1.59,1.32,1.59
			c-1.43,1.49-0.24,2.2-0.24,2.2c3.93,1.53,5.02,3.12,5.02,3.12c2.3,4.98-1.19,1.19-1.19,1.19s-2.26-2.63-6.9-2.46
			c-4.64,0.17-14.11,17.08-14.11,17.08c-4.54,6.19-14.02,7-14.02,7c-9.05,2.49-4.66,5.41-4.66,5.41c8.29,3.33,20.58-4.34,20.58-4.34
			c4.88-3.26,2.16-8.07,2.16-8.07c-1.87-3.38,1.24-5.24,1.24-5.24c1.63-1.61,0.72,1.55,0.72,1.55c-0.43,2.72,1.41,4.72,1.41,4.72
			c1.61,1.15,3.58,3.63,3.58,3.63c3.27,6.7-1.92,7.91-1.92,7.91s-6.04,0.8-3.45,4.02c2.59,3.22,5.23,0.81,5.23,0.81
			c2.27-1,5.48-2.69,8.65-3.42c3.17-0.72,0.26-2.9,0.26-2.9c-6.67-5.06-10.94-13.37-8.97-17.55c1.97-4.18,2.02-0.18,2.02-0.18
			c-0.11,4.21,3.27,9.06,3.27,9.06c2.46,3.12,6.39,5.73,8.55,9.32c2.15,3.59,4.64,3.59,4.64,3.59s3.88,1.24,3.98-0.95
			c0.1-2.2,7.92-3.18,7.92-3.18c3.09-2.12,0.35-4.66,0.35-4.66c-2.99-5.7,1.91-12.4,1.91-12.4c5.26-6.49,0.82,5.33,0.82,5.33
			c-1.22,4.72,1.6,3.26,1.6,3.26c2.46-1.44,6.35-1.04,6.35-1.04c7.62-0.04,5.42-8.21,5.42-8.21c-2.37-5.66,0.23-18.76,0.23-18.76
			c1.01-6.28-1.37-6.61-1.37-6.61c-0.4-0.3-2.48,1.44-2.48,1.44c-5.15,5.15-1.4-3-1.4-3c3.52-5.21,5.13-2.41,5.13-2.41
			c6.64,6.4,2.63,16.89,2.63,16.89c-1.98,6.3,0.88,12.46,0.88,12.46c0.34,1.91,1.97,1.97,1.97,1.97c5.51,0.19,6.15-2.56,6.15-2.56
			c2.61-5.58-0.17-23.96-0.17-23.96c-1.1-5.21,4.13-11.75,4.13-11.75c4.75-4.91,5.58-9.39,5.58-9.39
			c1.42-10.9-6.73-14.43-6.73-14.43c-5.93-1.97-4.07-9.53-4.07-9.53c0.87-8.19-3.87-8.85-3.87-8.85c-5.45-0.77-6.24,3.11-6.24,3.11
			c-0.05,1.2-3.11,4.32-3.11,4.32c-0.66,1.25,0.68,2.07,0.68,2.07c3.98,0.86,5.49,7.47,5.49,7.47c-0.11,1.89,1.26,3.47,1.26,3.47
			c4.37,3.22,6.05,9.61,6.05,9.61c1.46,6.45-0.69,2.04-0.69,2.04s-0.77-1.93-3.14-5.82c-2.38-3.89-4.15-2.59-4.15-2.59
			c-0.92,1.57,0.44,4.04,0.44,4.04c2.54,11.01-0.91,13.22-0.91,13.22c-5.37,3.02-2.98-2.98-2.98-2.98s1.83-3.68,0.53-8.95
			s-0.23-11.08-0.23-11.08c-0.24-5.14-6.94-6.06-6.94-6.06c-4.5-0.29-4.77,1.63-4.77,1.63c-6.49,10.77-11.66,9.44-11.66,9.44
			c-7.76-1.14-6.82-5.92-6.82-5.92c-0.02-2.21,3.11-0.09,3.11-0.09c5.72,6.97,11.83-3.22,11.83-3.22s2.61-4.04,0.82-6.5
			c-1.78-2.47-5.49,0-5.49,0s-2.28,1.52-1.29-0.61c0.99-2.13,4.03-3.26,4.03-3.26c6.04-1.4,6.22,5.08,6.22,5.08
			c-0.04,2.28,2.46,1.56,2.46,1.56c3.95-0.76,6.11-8.06,6.11-8.06c1.8-4.17,8.62-4.84,8.62-4.84c7.82-0.59,8.04,10.07,8.04,10.07
			c0.06,7.9,5.88,10.29,5.88,10.29c5.36,2.92,5.15,11.89,5.15,11.89c1.66,7.43-7.89,15.94-7.89,15.94
			c-3.36,7.2-0.99,27.99-0.99,27.99c-0.96,11.35-10.24,10.68-10.24,10.68s-2.54-0.67-2.71,1.57c-0.17,2.24-5.96,5.52-7.68,4.89
			c-1.72-0.63-4.85,0.54-4.85,0.54s-3.53,1.81-3.46,5.74c0.07,3.93-5.53,3.54-5.53,3.54s-2.63,0-2.36,1.29
			c0.27,1.29,1.17,1.25,1.17,1.25c7.61,1.53,9.71-5.66,9.71-5.66c0.62-2.88,3.74-3.07,3.74-3.07s1.82-0.42,2.22,0.94
			s3.67,1.37,3.67,1.37c5.55,1.52-1.97,0.99-1.97,0.99s-3.51-0.29-3.41,1.85s4.28,2.23,5.86,1.13c1.58-1.1,3.97-1.14,3.97-1.14
			s4.02-0.54,8.02,2.43c4,2.97,9.64,2.61,9.64,2.61s4.18-0.5,3.24-3.82c-0.94-3.32-5.19-2.98-5.19-2.98
			c-7.71,1.07-8.62-3.3-8.62-3.3c-1.01-2.42,0.73-1.05,0.73-1.05s2.15,2.03,7.21,1.56c5.06-0.47,6.57-4.64,6.57-4.64
			c0.86-5.68,4.51-7.2,4.51-7.2c3.55-1.06,5.55-3.92,5.55-3.92c3.7-7.37,0.73-9.26,0.73-9.26c-0.89-1.26-3.73,2.49-3.73,2.49
			c-3.37,3.58-8.84-1.04-8.84-1.04c-2.2-3.02,0.69-1.92,0.69-1.92c2.56,0.09,4.81,1.44,5.94-0.78c1.13-2.22,5.04-2.66,5.04-2.66
			c2.25-0.53,2.36-1.81,2.36-1.81c-0.61-3.1,2.73-7.4,2.73-7.4c1.79-1.89,0.7,0.7,0.7,0.7c-1.44,5.8-0.22,8.38-0.22,8.38
			c0.83,1.74,6.59,0.81,6.59,0.81c2.2-0.2,1.35,0.78,1.35,0.78c-1.58,3-6.8,3.39-6.8,3.39c-2.15-0.5-1.51,1.11-1.51,1.11
			c0.05,2.38-1.73,7.15-1.73,7.15s-1.26,2.29,1.14,1.64c2.41-0.66,5.45,0.16,5.45,0.16c3.79,1.27,7.49-2.46,7.49-2.46
			c5.48-7.06,8.86-1.3,8.86-1.3c1.23,2.4-0.53,1.21-0.53,1.21c-4.28-1.03-6.27,4.31-6.27,4.31c-2.89,5.29-7.54,2.84-7.54,2.84
			c-4.98-2.26-6.3,0.51-6.3,0.51c-1.6,2.37-5.5,1.41-5.5,1.41c-2.55-0.92-5,1.43-5,1.43c-4,3.67,0,2.91,0,2.91
			c3.7,0.35,10.8,6.16,10.8,6.16c6.89,3.54,13.42-3.94,13.42-3.94c2.61-3.17-0.75-1.88-0.75-1.88c-1.3,1.94-3.52,1.13-3.52,1.13
			c-2.91-0.24-0.45-1.01-0.45-1.01c1.33-0.01,1.56-1.67,1.56-1.67c2.08-6.27,7.62-1.77,7.62-1.77c1.37,2.11,2.49,0.7,2.49,0.7
			c12.57-22.47-1.18-20.45-1.18-20.45c-5.41,1.41-5.84-2.22-5.84-2.22c0.05-3.02,1.47-0.71,1.47-0.71c1.18,2.41,3.75,0.57,3.75,0.57
			c5.17-2.87,8.3-0.81,8.3-0.81c4.23,1.64,5.36,8.44,5.36,8.44c1.64,2.27,2.64,0,2.64,0c2.04-7.4-4.79-14.8-4.79-14.8
			S1176.56,200.91,1179.73,190.93z M1040.63,226.77c0,0,4.37-2.48,4.36-8.1c-0.01-5.62,2.03,0.77,2.03,0.77s1.41,7.71-5.36,8.83
			S1040.63,226.77,1040.63,226.77z M1061.98,166.33c0,0-1.57,1.43-6.06,0.96c0,0-3.66-1.78-5.83,5.17c0,0-2.22,5.56-0.7,6.74
			c0,0,1.57,0.68,4.99-3.16c0,0,10.53-6.12,1.88,2.53s-10.04,2.36-10.04,2.36s-2.4-17.28,7.69-18.62c0,0,1.78-0.32,2.74,1.4
			c0,0,1.65,2.41,4.97,1.27C1061.63,164.98,1065.96,164.42,1061.98,166.33z M1102.59,173.39c0,0,3.75,3.4,1.47,4.74
			c0,0-1,1.24-2.08-1.48c-1.09-2.73-3.84-1.41-3.39,2.78c0.45,4.19-1.13,6.59-1.13,6.59s-1.78,1.66-1.86-1.44
			C1095.6,184.59,1094.19,168.27,1102.59,173.39z M1089.36,195.28c0,0-4.33-5.01,1.66-1.69c0,0,0.95,1.56,3.18-1.14
			c0,0,4.35-2.87,0.58,1.78c0,0-1.55,0.8-4.51,6.46c0,0-4.27,3.32-1.99-1.35C1088.27,199.34,1092.18,195.28,1089.36,195.28z
			 M1082.05,183.16c0,0,3.19-1.46,2.72,3.02c-0.47,4.47-0.46,4.09-4.36,8.55c-3.9,4.46-6.64,2.94-0.29,9.29
			c6.35,6.35,7.52,10.25,7.44,20.91c0,0-3.71,7.37-3.81,11.98c-0.1,4.61-3.58,4.61-2.57,0.46c0,0-0.53-4.55,2.5-12.08
			c3.03-7.52-4.64-17.22-6.82-18.39c0,0-9.77-6.98-0.21-13.03c0,0,4.68-2.26,4.43-6.1c0,0,0.2-1.22-5.03-1.31
			c-5.23-0.1-8.14-2.6-8.14-2.6s-4.67-2.73,1.28-2.15C1069.2,181.73,1078.53,183.59,1082.05,183.16z M1109.14,134.79
			c0,0-6.94-6.14-8.61-2.3c0,0-1.8,2.44,4.84,3.65c0,0,6.28,6.22-1.22,3.4c0,0-5.16-3.21-9.69-2.67c-4.53,0.54-8.29-2.58-8.29-2.58
			s-3.54-2.8,2.59-1.96c0,0,6.62,1.79,9.86-1.45c0,0,3.99-8.31,12.33,2.02C1110.94,132.9,1113.24,139.24,1109.14,134.79z
			 M1143.59,197.21c-6.33-1.23-4.94,2.32-4.94,2.32c0.79,7.4-4.5,6-4.5,6c-8.11-1.66-4.03-9.35-4.03-9.35c5.23-9.22,3.23,0,3.23,0
			c0.22,11.14,2.93,0,2.93,0c1.43-6.54,6.18-2.27,6.18-2.27c2.64,1.26,3.76-2.82,3.76-2.82c3.27-8.44-1.27-13.15-1.27-13.15
			c-4.51-10.36,1.71-8.94,1.71-8.94c4.41,0-0.3,1.66-0.3,1.66c-1.57,2.79,3.03,9.73,3.03,9.73
			C1154.19,197.31,1143.59,197.21,1143.59,197.21z M1146.7,157.37c-3.02-8-9.56-7.11-9.56-7.11c-3.68-0.33-3.07,1.75-3.07,1.75
			c1.06,2.15,1.36,4.34,1.36,4.34s0,4.23,4.91,5.95c4.91,1.72,0.39,2.59,0.39,2.59c-3.63-1.49-2.82,0.37-2.82,0.37
			c1.34,3.22-1.21,2.99-1.21,2.99c-3.13-3.04-3.02-8.06-3.02-8.06c0.17-7.59-4.48-9.93-4.48-9.93c-5.08-2.33-5.39-8.65-5.39-8.65
			c-2.94-9.77-8.17-13.52-8.17-13.52s-6.19-4.55,1.6-0.81c7.8,3.74,9.53,13.71,9.53,13.71c2.07,7.05,8.14,6.57,8.14,6.57
			c14.68-2.72,15.89,8.13,15.89,8.13C1149.45,163.3,1146.7,157.37,1146.7,157.37z M1148.12,144.41c0,0-7.46,0.03-9.63-6.24
			c-2.17-6.27-7.35-11.97-7.35-11.97s-3.81-4.8,1.42-0.37c5.23,4.43,8.85,11.95,8.85,11.95c3.01,4.44,8.04,3.68,8.04,3.68
			c11.14-1,11.92,11.92,11.92,11.92c0.04,3.71,3.62,8.64,3.62,8.64c2.23,3.87,0,3.99-1.11,2.95c-1.11-1.04-4.5-2.28-5.9-11.01
			C1156.57,145.23,1148.12,144.41,1148.12,144.41z M1167.45,198.26c0,0-0.87-0.95-1.76-5.17c-0.9-4.23-3.25-1.21-3.25-1.21
			s-3.19,3.54,0.41,9.58c3.6,6.04-2.17,0.27-2.17,0.27s-4.26-3.42-0.68-11.91c3.58-8.49-0.57-11.65-0.57-11.65
			s-4.15-5.98-1.34-10.02c2.81-4.05,2.23,1.31,2.23,1.31s-1,4.59,2,7.74s3,7.97,3,7.97s1.43,6.46,3.23,10.86
			C1170.34,200.42,1167.45,198.26,1167.45,198.26z"/>
		<path d="M1185.34,206.03c-6.19-4.66-1.53-17.49-1.53-17.49c1.09-12.83-10.4-18.19-10.4-18.19c-0.07-4.19-0.45-6.38-0.45-6.38
			c-0.89-3.26-1.66-11.37-1.66-11.37c-1.21-11.82-13.48-17.08-13.48-17.08c-11.43-2.35-14.9-8.72-14.9-8.72
			c-7.37-11.7-17.62-12.43-17.62-12.43c-6.67-0.26-12.57-3.35-12.57-3.35c-5.67-2-11.48-0.24-11.48-0.24
			c-3.59,1.32-6.46-3.14-6.46-3.14c-5.59-4.75-7.94-6.42-19.54-4.69s-15.55-2.35-15.55-2.35c-16.81-9.37-27.07,5.82-27.07,5.82
			c-4.06,4.94-9.92,3.45-9.92,3.45c-12,0.54-15.85,6.07-15.85,6.07c-2.7,4.19-8.13,4.55-8.13,4.55
			c-11.86,3.79-18.06,17.46-18.06,17.46c-6.16,11.84-11.45,16.06-11.45,16.06c-7.72,4.6-6.7,18.45-6.7,18.45
			c-0.51,7.54-4.85,13.21-4.85,13.21c-7.91,11.11,1.66,16.47,1.66,16.47c7.15,5.81,5.49,10.4,5.49,10.4
			c0.19,16.53,10.15,12.13,10.15,12.13c8.87,22.15,23.04,7.02,23.04,7.02c6.7,1.6,15.38-0.38,15.38-0.38c-1.56,2.14-6.57,6-6.57,6
			c-6.06,8.62,4.98,10.21,4.98,10.21c13.53,3,15.13-0.7,15.13-0.7c8.26,8.61,24.95,0,24.95,0c-0.96,2.3,1.53,4.92,1.53,4.92
			s4.91,6.19,13.02,0.76c8.11-5.43,20.04,1.28,20.04,1.28c10.53,2.36,13.79-3.57,13.79-3.57c1.15,3.89,10.43,1.53,10.43,1.53
			c4.04-1.98,8.79,1.4,8.79,1.4c4.09,3,9.7,2.49,9.7,2.49c11.04,1.34,8.3-8.3,8.3-8.3s-0.83-2.94,1.21-3.96
			c2.04-1.02,5.62,2.62,5.62,2.62c3.7,4.02,11.23,4.53,11.23,4.53c23.49-7.34,23.81-23.48,23.81-23.48
			c-0.06-4.14,1.28-1.93,1.28-1.93c4.52,4.86,7.53-1.02,7.53-1.02C1192.87,212.42,1185.34,206.03,1185.34,206.03z M1002.82,225.92
			c0,0-0.02,3.24-3.51,1.38c0,0-3.03-1.51-6.86-1.05c0,0-2.1-0.07-1.53-1.53c0,0,0.59-2.3-0.86-0.86c0,0-2.48,1.64,2.28,5.15
			c0,0,1.2,1.15-1.04,2.58c0,0-10.58,5.38-12.76-12.99c0,0-0.7-6.59-3.84-4.98c0,0-3.25,1.11,0,1.58c0,0,3.44,2.06-1.44,5.13
			c0,0-5.07,2.57-4.46-5.8c0,0-0.28-1.32,1.95-2.01c0,0,8.94-2.79,6.76-7.45c0,0-1.31-0.9-2.94,0c0,0-6.2,4.03-7.63-0.35
			c0,0-4.06-5.52-6.99-6.64c0,0-3.94-4.34,0.62-9.94c0,0,2.19-2.91,3.15-5.53c0,0,4.73-6.48,10.7-8.29
			c5.96-1.81,4.69-9.98,4.69-9.98s0.25-7.46,6-10.02c0,0,3.97-2.16-1.08-1.08c0,0-7.29,1.1-8.47,13.7c0,0-0.17,3.17-3.67,4.28
			c0,0-1.69,0.4-4.29,2.35c0,0-1.95,1.17-1.7-3.74c0,0,0.56-7.42,5.35-12.99c0,0,8.65-6.94,13.6-18.98c0,0,5.95-11.29,15.68-13.97
			c0,0,6.53-1.86,9.34-6.45c0,0,3.87-4.99,12.44-3.55c0,0,7.81,1.59,14.06-3.59c0,0,7.95-3.58,13.29,1.11
			c5.34,4.69,8.35,1.81,8.35,1.81s3.24-2.24,7.52,0c0,0,2.02,1.61,1.49-1.49c0,0-0.28-3.9-8.82-1.62c0,0-3.26,1.58-6.33-1.1
			c0,0-3.12-4.14-12.23-2.9c-0.75,0.1-1.17-0.85-0.58-1.32c3.12-2.5,9.62-6.16,16.33-0.64c0,0,5.26,4.32,20.66,1.53
			c0,0,12.48-2.33,17.71,5.4c0,0,2.39,2.82-0.45,7.85c0,0-1.98,3.29-6.52,4.03c0,0-11.76,0.42,0.12-7.96c0,0,3.11-2.74-0.46-2.47
			c0,0-3.31,0.59-5.96,3.24c0,0-4.68-2.32-5.94-1.82c0,0-6.9,0.46-0.5,2.84c0,0,4.31,2.07,4.81,4.81c0,0,0.71,3.59-2.68,3.07
			c0,0-3.89-0.76-7.95,4.69c0,0-1.47,1.59-3.72,1.57c0,0-4.47-0.26-4.99,4.9c0,0-0.77,5.89-4.95,5.34c0,0-4.57,1.26-4.98,3.73
			c0,0-0.96,1.61-2.52,1.87c0,0-12.54,2.2-11.66,13.69c0,0,0.69,2.3-2.33,4.45c0,0-5.4,4.58-6.17,2.04c0,0-1.98-3.82-7.09-4.13
			c0,0-4.97-0.93-0.79,1.8c0,0,8.91,2.39,4.46,14.81c0,0-1.46,1.93-4.73,4.02c0,0-3.32,3.58-4.32,9.44s-7.27,3.77-7.27,3.77
			s-9.56-7.32-17.73-1.21c0,0-5.68,4.64,2.62,0.75c0,0,6.95-2.12,11.32,1.56c0,0,4.28,4.31,8.38,3.69c0,0-0.55,10.55-4.06,13.31
			C1007.7,214.76,1002.73,220.4,1002.82,225.92z M1185.35,221.33c0,0-1,2.27-2.64,0c0,0-1.13-6.8-5.36-8.44c0,0-3.13-2.06-8.3,0.81
			c0,0-2.57,1.84-3.75-0.57c0,0-1.42-2.31-1.47,0.71c0,0,0.42,3.63,5.84,2.22c0,0,13.75-2.02,1.18,20.45c0,0-1.12,1.41-2.49-0.7
			c0,0-5.54-4.5-7.62,1.77c0,0-0.22,1.66-1.56,1.67c0,0-2.46,0.77,0.45,1.01c0,0,2.22,0.81,3.52-1.13c0,0,3.35-1.29,0.75,1.88
			c0,0-6.53,7.48-13.42,3.94c0,0-7.1-5.81-10.8-6.16c0,0-4,0.76,0-2.91c0,0,2.45-2.34,5-1.43c0,0,3.89,0.96,5.5-1.41
			c0,0,1.32-2.78,6.3-0.51c0,0,4.66,2.45,7.54-2.84c0,0,1.99-5.34,6.27-4.31c0,0,1.77,1.19,0.53-1.21c0,0-3.38-5.76-8.86,1.3
			c0,0-3.7,3.73-7.49,2.46c0,0-3.04-0.82-5.45-0.16c-2.41,0.66-1.14-1.64-1.14-1.64s1.78-4.77,1.73-7.15c0,0-0.64-1.62,1.51-1.11
			c0,0,5.22-0.4,6.8-3.39c0,0,0.85-0.98-1.35-0.78c0,0-5.75,0.93-6.59-0.81c0,0-1.21-2.58,0.22-8.38c0,0,1.09-2.59-0.7-0.7
			c0,0-3.34,4.3-2.73,7.4c0,0-0.11,1.28-2.36,1.81c0,0-3.91,0.44-5.04,2.66c-1.13,2.22-3.38,0.86-5.94,0.78c0,0-2.9-1.09-0.69,1.92
			c0,0,5.46,4.62,8.84,1.04c0,0,2.83-3.74,3.73-2.49c0,0,2.97,1.89-0.73,9.26c0,0-2,2.86-5.55,3.92c0,0-3.65,1.53-4.51,7.2
			c0,0-1.51,4.17-6.57,4.64c-5.06,0.47-7.21-1.56-7.21-1.56s-1.74-1.37-0.73,1.05c0,0,0.91,4.37,8.62,3.3c0,0,4.25-0.34,5.19,2.98
			c0.94,3.32-3.24,3.82-3.24,3.82s-5.64,0.36-9.64-2.61c-4-2.97-8.02-2.43-8.02-2.43s-2.39,0.03-3.97,1.14
			c-1.58,1.1-5.76,1.02-5.86-1.13s3.41-1.85,3.41-1.85s7.52,0.53,1.97-0.99c0,0-3.27-0.01-3.67-1.37s-2.22-0.94-2.22-0.94
			s-3.12,0.19-3.74,3.07c0,0-2.1,7.19-9.71,5.66c0,0-0.9,0.05-1.17-1.25c-0.27-1.29,2.36-1.29,2.36-1.29s5.6,0.4,5.53-3.54
			c-0.07-3.93,3.46-5.74,3.46-5.74s3.13-1.17,4.85-0.54c1.72,0.63,7.51-2.66,7.68-4.89c0.17-2.24,2.71-1.57,2.71-1.57
			s9.29,0.67,10.24-10.68c0,0-2.37-20.79,0.99-27.99c0,0,9.55-8.51,7.89-15.94c0,0,0.21-8.97-5.15-11.89c0,0-5.82-2.39-5.88-10.29
			c0,0-0.22-10.67-8.04-10.07c0,0-6.82,0.67-8.62,4.84c0,0-2.16,7.31-6.11,8.06c0,0-2.5,0.73-2.46-1.56c0,0-0.17-6.48-6.22-5.08
			c0,0-3.04,1.13-4.03,3.26c-0.99,2.13,1.29,0.61,1.29,0.61s3.7-2.47,5.49,0c1.78,2.47-0.82,6.5-0.82,6.5s-6.11,10.19-11.83,3.22
			c0,0-3.13-2.12-3.11,0.09c0,0-0.94,4.78,6.82,5.92c0,0,5.17,1.33,11.66-9.44c0,0,0.27-1.91,4.77-1.63c0,0,6.7,0.92,6.94,6.06
			c0,0-1.08,5.81,0.23,11.08s-0.53,8.95-0.53,8.95s-2.39,6,2.98,2.98c0,0,3.45-2.21,0.91-13.22c0,0-1.36-2.47-0.44-4.04
			c0,0,1.77-1.3,4.15,2.59c2.38,3.89,3.14,5.82,3.14,5.82s2.15,4.41,0.69-2.04c0,0-1.69-6.39-6.05-9.61c0,0-1.36-1.58-1.26-3.47
			c0,0-1.51-6.61-5.49-7.47c0,0-1.33-0.82-0.68-2.07c0,0,3.06-3.12,3.11-4.32c0,0,0.79-3.88,6.24-3.11c0,0,4.74,0.66,3.87,8.85
			c0,0-1.86,7.56,4.07,9.53c0,0,8.15,3.54,6.73,14.43c0,0-0.83,4.48-5.58,9.39c0,0-5.23,6.55-4.13,11.75c0,0,2.78,18.37,0.17,23.96
			c0,0-0.64,2.75-6.15,2.56c0,0-1.63-0.05-1.97-1.97c0,0-2.86-6.16-0.88-12.46c0,0,4-10.49-2.63-16.89c0,0-1.61-2.8-5.13,2.41
			c0,0-3.74,8.15,1.4,3c0,0,2.07-1.73,2.48-1.44c0,0,2.38,0.33,1.37,6.61c0,0-2.6,13.1-0.23,18.76c0,0,2.19,8.17-5.42,8.21
			c0,0-3.89-0.4-6.35,1.04c0,0-2.82,1.45-1.6-3.26c0,0,4.44-11.82-0.82-5.33c0,0-4.91,6.71-1.91,12.4c0,0,2.74,2.54-0.35,4.66
			c0,0-7.81,0.98-7.92,3.18c-0.1,2.2-3.98,0.95-3.98,0.95s-2.49,0-4.64-3.59c-2.15-3.59-6.08-6.2-8.55-9.32c0,0-3.37-4.85-3.27-9.06
			c0,0-0.05-4-2.02,0.18c-1.97,4.18,2.3,12.49,8.97,17.55c0,0,2.91,2.17-0.26,2.9c-3.17,0.72-6.38,2.42-8.65,3.42
			c0,0-2.64,2.4-5.23-0.81c-2.59-3.22,3.45-4.02,3.45-4.02s5.2-1.22,1.92-7.91c0,0-1.98-2.49-3.58-3.63c0,0-1.84-2-1.41-4.72
			c0,0,0.91-3.17-0.72-1.55c0,0-3.11,1.86-1.24,5.24c0,0,2.72,4.81-2.16,8.07c0,0-12.29,7.67-20.58,4.34c0,0-4.39-2.92,4.66-5.41
			c0,0,9.48-0.81,14.02-7c0,0,9.47-16.91,14.11-17.08c4.64-0.17,6.9,2.46,6.9,2.46s3.49,3.79,1.19-1.19c0,0-1.09-1.58-5.02-3.12
			c0,0-1.19-0.71,0.24-2.2c0,0,6.12-8.06-1.32-1.59c0,0-3.52,3.72-5.94,1.22c0,0-4.86-5.37-12.83-3c0,0-8.92,2.06-13.76-1.5
			c0,0-5.06-4.45-1.07,0.97c0,0,4.03,5.59,12.55,4.41c0,0,15.13-1.66,11.66,4.37c0,0-7.87,10.3-10.35,13.53
			c0,0-3.97,6.35-10.73,6.01c0,0-3.17-0.13-3.53-1.43c0,0-5.66-4.96-11.24-1.67c-5.59,3.29-4.33,4.98-4.33,4.98s0.01,1.56,2.22-0.11
			s6.02-2.43,7.4-2.03c0,0,10.62,2.89,2.14,5.24c0,0-4.27,1.06-6.69,2.68c0,0-1.8,1.84-6.82,1.35c0,0-7.63-0.6-4.62-5.26
			c0,0,1.75-2.72,3.44-3.61c1.69-0.88,5.12-5.17,5.12-5.17s0.72-2.92,7.09-3.06c0,0,3-0.09,4.49,0.6c0,0,2.83,0.12-0.9-2.08
			c0,0-6.31-2.81-15.94,1.37c0,0-8.33,3.51-8.57-1.23c0,0,1.13-5.07,5.41-8.99c0,0,1.53-1.47,3.49-0.16c0,0,6.56,5.66,10.3,5.11
			c0,0,3.71-0.42-0.24-1.89c-3.95-1.47-12.38-6.5-9.83-16.77c0,0,0.97-3.91,2.85-7.56c0,0,1.93-2.05,2.56-5.83
			c0,0,1.5-3.45,3.75-5.03c0,0,1.53-1.57,2.63,2.4c0,0,3.16,8.66,8.47,11.54c0,0,7.34,2.68,13.08-3.78c0,0,5.74-6.57,8.51-6.03
			c0,0,0.9-0.48,3.87,1c0,0,5.44,3.37,8.42,0.89c0,0,2.07-1.23-1.52-1.99c0,0-4.24-0.37-5.77-1.63c0,0-4.56-4.43-12.37,2.36
			c0,0-8.14,9.86-15.7,2.99c0,0-6.26-6.08-5.72-16.44c0,0-0.42-2.14,3.68-5.08l11.04-8.56c0,0,3.94-3.71-0.33-2.61
			c0,0-2.41,1.59-3.08-0.21c0,0-2.3-6.87,5.8-8.31c0,0,7.37-0.57,8.38-3.83c0,0,0.98-4.93,9.66-3.74c0,0,5.68,0.35,7.75,5.37
			c0,0,1.27,5.1,5.57,4.22c0,0,4.24-0.25,5.28-3.43c0,0,0.51-2.44,4.1-2.31c0,0,7.37,0.94,1.53-3.34c0,0-3.97-2.63-7.94,2.84
			c0,0-2.87,4.77-5.97,0c0,0-1.4-5.82-8.87-6.09c0,0-2.87,0.64-2.01-2.81c0,0,0.12-3.12,2.81-3.11c0,0,3.07,0.82,6.78-4.5
			c3.72-5.32,5.39-1.68,5.39-1.68s0.07,3.78-2.3,4.92c0,0-4.44,1.5-0.9,2.02c0.32,0.05,3.69-1.17,4.95-3.65c0,0,3.6-6.19,7.71-6.15
			c0,0,5.13,0.99,8.87-0.11c0,0,2.83-1.29,4.08-4.31c0,0,3.25-4.78,9.07-2.03c0,0,5.24,4,2.77-1.07c0,0-4.65-4.64-11.38-1.16
			c0,0-3.2,1.85-4.53,4.53c-1.34,2.69-2.57,1.35-1.38-0.42c0,0,6.34-12.65,15.97-7.47c0,0,9.2,3.41,14.47,3.55
			c0,0,6.29,0.86,10.45,6.18c0,0,3.36,4.69,6.63,7.87c3.27,3.19,11.08,5.87,11.08,5.87s13.34,5,14.61,16.48c0,0,0.03,5.21,1.54,7.41
			c0,0,1.67,2.14,1.4,10.64c0,0-1.41,3.62,2.75,11.57c0,0,1.9,1.32,0.96-1.39c0,0-2.01-4.68-1.55-6.96c0,0,0.46-1.9,2.07,0
			c0,0,7.82,5.44,4.65,15.41s0.83,15.59,0.83,15.59S1187.39,213.93,1185.35,221.33z"/>
		<path d="M1054.59,129.69c0.86,3.64-1.75,7.6-1.75,7.6s-3.26,3.45,1.09,1.58c4.34-1.87,3.4-4.75,3.4-4.75
			c-2.22-7.45,7.63-6.47,7.63-6.47s1.42,0,0.97-1.34c-0.45-1.34-6.32-1.02-6.32-1.02C1050.15,124.71,1054.59,129.69,1054.59,129.69z
			"/>
		<path d="M1020.47,142.2c2.04,5.55,2.62,0.64,2.62,0.64c1.53-11.43,5.62-9.51,5.62-9.51c5.11,1.28,6.86-2.91,6.86-2.91
			c1.62-8.27,5.91,0.42,5.91,0.42c2.43,7.34,2.59,1.49,2.59,1.49c1.12-5.47-2.85-7.04-2.85-7.04c-5.25-1.85-3.11-4.08-3.11-4.08
			c3.07-4.91,7.34-1.16,7.34-1.16c7.91,5.23,11.04,2.94,11.04,2.94c4.02-2.74,0.45-1.79,0.45-1.79c-4.52,1.35-6.45-1.28-6.45-1.28
			c-13.91-11.68-15.89,4.28-15.89,4.28c-1.53,8.68-5.87,5.62-5.87,5.62C1019.58,129.69,1020.47,142.2,1020.47,142.2z"/>
		<path d="M988.57,144.85c0,0,9.84-19.45,17.04-14.6c0,0,7.13,4.23,11.47-1.96c0,0,3.89-4.66,7.6-3.89c0,0,2.55,1.15,3-0.7
			c0,0,1.47-2.22-2.94-2.48c0,0-5.11-0.96-10.09,5.35c0,0-3.26,2.94-7.79,0.7c0,0-11.87-6.45-20.11,17.23
			C986.77,144.5,984.95,150.18,988.57,144.85z"/>
		<path d="M1003.17,136.59c0,0-3.34,6.21,0.5,3.11c0,0,2.5-2.91,7.16-1.64c0,0,2.38,0.68-1.49,3.69c-3.87,3.01-0.56,2.92,1,1.36
			c0,0,8.28-5.24,4.64,4.59c0,0-1.91,3.77,2.3,1.31c0,0,5.11-3.8-2.11-11.65C1007.96,129.5,1003.17,136.59,1003.17,136.59z"/>
		<path d="M1038.53,145.91c-6.26-2.74-8.43,5.12-8.43,5.12c-2.23,3.46-6.89,1.13-6.89,1.13c-6.4,0.5-0.51,3.96-0.51,3.96
			c9.77,2.74,10.28-4.53,10.28-4.53c2.43-5.49,4.85-4.21,4.85-4.21S1044.79,148.65,1038.53,145.91z"/>
		<path d="M987.17,166.8c5.38,3.41,3.69,7.19,3.69,7.19c-1.02,6.13,1.95,1.15,1.95,1.15c6.39-12.61,11.58-5.36,11.58-5.36
			c9,12.57,11.04,5.04,11.04,5.04s0.19-1.53-1.72-0.7c-1.91,0.83-3.89-1.47-3.89-1.66s-2.17-6.77-6.28-6.42
			c-4.11,0.35,0.66-3.09,0.66-3.09s8.62-4.91,5.99-7.16s-8.35,4.94-8.35,4.94s-6.38,8.99-11.49,5.16c-5.11-3.83,1.53-8.23,1.53-8.23
			c9.19-6.96,9.15-10.27,9.15-10.27c-0.24-4.14-2.25-1.15-2.25-1.15c-5.43,7.49-8.05,8.16-8.05,8.16
			C984.46,157.82,981.79,163.4,987.17,166.8z"/>
		<path d="M1008.92,187.91c-7.09,2.04-11.11-4.98-11.11-4.98s-4.09-7.09-0.96,1.6c3.13,8.68,10.98,5.81,10.98,5.81
			S1016,185.86,1008.92,187.91z"/>
		<path d="M990.79,187.33c4.15,1.4,1.35-1.84,1.35-1.84c-7.02-10.01-10.35,1.51-10.35,1.51c-1.22,4.2-3.7,1.86-3.7,1.86
			c-11.87-5.74-12.18,3.64-12.18,3.64c0,7.15,4.27-0.45,4.27-0.45c2.55-5.62,7.6,1.98,7.6,1.98c1.28,3.83,3-0.51,3-0.51
			C987.15,180.31,990.79,187.33,990.79,187.33z"/>
		<path d="M999.15,217.84c-2.36,2.23-6.34-1.79-6.34-1.79c-5.39-8.04-8.18-6.25-8.18-6.25c-6.04,5.12-2.13,12.84-2.13,12.84
			c2.24,2.89,2.13-1.48,2.13-1.48c-1.12-9.69,3.34-5.03,3.34-5.03c4.58,5.9,8.89,7.83,11.44,3.8
			C1001.96,215.93,999.15,217.84,999.15,217.84z"/>
		<path d="M1098.6,130.88c-3.24,3.24-9.86,1.45-9.86,1.45c-6.13-0.83-2.59,1.96-2.59,1.96s3.76,3.12,8.29,2.58
			c4.53-0.54,9.69,2.67,9.69,2.67c7.5,2.82,1.22-3.4,1.22-3.4c-6.64-1.21-4.84-3.65-4.84-3.65c1.67-3.84,8.61,2.3,8.61,2.3
			c4.1,4.46,1.8-1.89,1.8-1.89C1102.59,122.58,1098.6,130.88,1098.6,130.88z"/>
		<path d="M1134.91,147.59c0,0-6.07,0.48-8.14-6.57c0,0-1.73-9.97-9.53-13.71c-7.8-3.74-1.6,0.81-1.6,0.81s5.23,3.75,8.17,13.52
			c0,0,0.3,6.31,5.39,8.65c0,0,4.65,2.34,4.48,9.93c0,0-0.1,5.02,3.02,8.06c0,0,2.55,0.23,1.21-2.99c0,0-0.81-1.86,2.82-0.37
			c0,0,4.52-0.87-0.39-2.59c-4.91-1.72-4.91-5.95-4.91-5.95s-0.3-2.19-1.36-4.34c0,0-0.61-2.08,3.07-1.75c0,0,6.54-0.9,9.56,7.11
			c0,0,2.74,5.93,4.1-1.65C1150.8,155.72,1149.59,144.86,1134.91,147.59z"/>
		<path d="M1163.86,164.97c1.11,1.04,3.35,0.92,1.11-2.95c0,0-3.58-4.94-3.62-8.64c0,0-0.78-12.92-11.92-11.92
			c0,0-5.02,0.76-8.04-3.68c0,0-3.61-7.51-8.85-11.95c-5.23-4.43-1.42,0.37-1.42,0.37s5.18,5.71,7.35,11.97
			c2.17,6.27,9.63,6.24,9.63,6.24s8.45,0.81,9.85,9.55C1159.36,162.69,1162.75,163.93,1163.86,164.97z"/>
		<path d="M1165.32,185.16c0,0,0-4.81-3-7.97s-2-7.74-2-7.74s0.57-5.36-2.23-1.31c-2.81,4.05,1.34,10.02,1.34,10.02
			s4.15,3.16,0.57,11.65c-3.58,8.49,0.68,11.91,0.68,11.91s5.78,5.78,2.17-0.27c-3.6-6.04-0.41-9.58-0.41-9.58s2.36-3.02,3.25,1.21
			c0.9,4.23,1.76,5.17,1.76,5.17s2.89,2.16,1.1-2.24C1166.75,191.63,1165.32,185.16,1165.32,185.16z"/>
		<path d="M1146.37,170.65c0,0,4.71-1.66,0.3-1.66c0,0-6.22-1.41-1.71,8.94c0,0,4.54,4.71,1.27,13.15c0,0-1.12,4.09-3.76,2.82
			c0,0-4.75-4.27-6.18,2.27c0,0-2.71,11.14-2.93,0c0,0,2-9.22-3.23,0c0,0-4.08,7.69,4.03,9.35c0,0,5.29,1.4,4.5-6
			c0,0-1.38-3.55,4.94-2.32c0,0,10.6,0.1,5.82-16.82C1149.4,180.38,1144.8,173.44,1146.37,170.65z"/>
		<path d="M1090.26,200.7c2.96-5.66,4.51-6.46,4.51-6.46c3.77-4.65-0.58-1.78-0.58-1.78c-2.23,2.69-3.18,1.14-3.18,1.14
			c-5.99-3.32-1.66,1.69-1.66,1.69c2.82,0-1.08,4.07-1.08,4.07C1085.99,204.01,1090.26,200.7,1090.26,200.7z"/>
		<path d="M1041.66,228.27c6.77-1.13,5.36-8.83,5.36-8.83s-2.03-6.38-2.03-0.77c0.01,5.62-4.36,8.1-4.36,8.1
			S1034.89,229.4,1041.66,228.27z"/>
		<path d="M1061.63,164.98c-3.33,1.14-4.97-1.27-4.97-1.27c-0.96-1.72-2.74-1.4-2.74-1.4c-10.09,1.35-7.69,18.62-7.69,18.62
			s1.39,6.28,10.04-2.36s-1.88-2.53-1.88-2.53c-3.42,3.84-4.99,3.16-4.99,3.16c-1.52-1.17,0.7-6.74,0.7-6.74
			c2.17-6.95,5.83-5.17,5.83-5.17c4.49,0.47,6.06-0.96,6.06-0.96C1065.96,164.42,1061.63,164.98,1061.63,164.98z"/>
		<path d="M1097.46,186.03c0,0,1.58-2.4,1.13-6.59c-0.45-4.19,2.3-5.51,3.39-2.78c1.09,2.73,2.08,1.48,2.08,1.48
			c2.27-1.34-1.47-4.74-1.47-4.74c-8.39-5.13-6.98,11.19-6.98,11.19C1095.69,187.69,1097.46,186.03,1097.46,186.03z"/>
		<path d="M1067.92,183.88c0,0,2.91,2.5,8.14,2.6c5.23,0.1,5.03,1.31,5.03,1.31c0.24,3.84-4.43,6.1-4.43,6.1
			c-9.55,6.04,0.21,13.03,0.21,13.03c2.18,1.16,9.85,10.87,6.82,18.39c-3.03,7.52-2.5,12.08-2.5,12.08c-1,4.15,2.48,4.15,2.57-0.46
			c0.1-4.61,3.81-11.98,3.81-11.98c0.08-10.66-1.09-14.56-7.44-20.91c-6.35-6.35-3.61-4.83,0.29-9.29c3.9-4.46,3.89-4.07,4.36-8.55
			c0.47-4.47-2.72-3.02-2.72-3.02c-3.52,0.43-12.86-1.43-12.86-1.43C1063.25,181.15,1067.92,183.88,1067.92,183.88z"/>
	</g>
</g>
<g id="spirale_haut_tornade">
	<path d="M659.28,326.43c-90.54,62.52,33.22-31.25-20.52-117.86c0.01-0.01-0.49,30.26-13.29,43.21
		c-6.37-27.77-3.74-79.67-84.56-112.05c62.34,92.23-31.36-34.09-117.86,20.53c109.98,20.26-46.3-1.74-68.83,97.85
		c-4.88,3.16,42.07-34.53,37.15-15.03c-14.93,14.99-49.15,59.9-16.64,132.9c0,0,0.5-30.27,13.29-43.21
		c6.37,27.79,3.74,79.66,84.56,112.05c-62.52-90.54,31.25,33.22,117.86-20.52c0.01,0.01-30.26-0.49-43.21-13.29
		C575.02,404.62,626.89,407.25,659.28,326.43z"/>
</g>
<g id="forme">
	<g id="etage_bas">
		<path class="st2" d="M461.28,828.41c0,0,30.87,49.37,109.84,40.69c0,0-8.54-41.8,3.52-57.31
			C574.64,811.79,542.66,841.58,461.28,828.41z"/>
	</g>
	<g id="etage_superieur_identique">
		<path class="st3" d="M592.26,767.75c0,0-33.13,35.43-36,84.26c0,0-105.13-14.62-121.6-56.62c0,0,18.57,12.19,76.02-27.64
			C510.68,767.75,558.94,785.37,592.26,767.75z"/>
		<path class="st4" d="M600.96,723.68c0,0-42.39,42.85-47.66,103.42c0,0-130.09-21.83-149.09-74.58c0,0,22.65,15.8,95.41-31.68
			C499.62,720.83,558.95,744.4,600.96,723.68z"/>
		<path class="st5" d="M615.19,679.7c0,0-54.05,48.69-64.61,121.29c0,0-155.22-35.34-174.44-100.22c0,0,26.19,20.6,117.15-31.54
			C493.29,669.23,563.14,701.75,615.19,679.7z"/>
	</g>
</g>
</svg>
