<?xml version="1.0" encoding="utf-8"?>
<svg version="1.1" id="svg2" width="1000px" height="200px" viewBox="0 0 1000 200" xmlns="http://www.w3.org/2000/svg">
  <g id="title" style="">
    <g id="outer_letters">
      <path d="M 808.443 177.336 L 846.332 27.802 C 846.621 26.655 847.655 25.851 848.836 25.851 L 951.447 25.851 C 951.447 25.851 982.224 25.602 973.851 61.877 L 945.684 178.986 C 945.407 180.148 944.365 180.967 943.172 180.967 L 905.565 180.967 C 903.897 180.967 902.664 179.408 903.053 177.783 L 927.875 73.711 C 927.875 73.711 926.918 68.812 924.648 73.711 L 899.185 178.599 C 898.906 179.758 897.867 180.575 896.673 180.575 L 859.364 180.575 C 857.676 180.575 856.44 178.981 856.862 177.346 L 884.035 71.841 C 884.035 71.841 883.264 66.739 880.442 71.626 L 853.056 178.187 C 852.767 179.319 851.75 180.115 850.582 180.128 L 810.975 180.555 C 809.279 180.572 808.026 178.979 808.443 177.336" style="fill:#ffffff;fill-opacity:1;fill-rule:nonzero;stroke:none" id="path40"/>
      <path d="M 712.591 178.563 L 751.281 25.683 C 751.368 25.333 751.683 25.089 752.045 25.089 L 811.046 25.089 C 811.046 25.089 839.616 25.089 836.072 50.714 C 836.067 50.744 836.063 50.776 836.055 50.806 L 825.787 95.35 C 825.787 95.35 823.108 115.139 804.544 120.715 C 804.122 120.843 803.85 121.26 803.93 121.694 L 814.375 178.638 C 814.463 179.12 813.683 180.526 813.196 180.531 L 770.558 180.531 C 768.895 180.548 767.35 178.88 767.042 177.245 L 765.447 168.74 C 765.292 167.918 764.133 167.871 763.911 168.675 L 760.92 179.467 C 760.822 179.812 760.475 180.536 760.118 180.531 L 713.018 180.531 C 712.508 180.526 712.466 179.058 712.591 178.563" style="fill:#ffffff;fill-opacity:1;fill-rule:nonzero;stroke:none" id="path44"/>
      <path d="M 625.313 160.859 L 652.929 48.967 C 652.929 48.967 661.297 25.089 683.85 25.089 L 720.56 25.089 C 720.56 25.089 748.565 27.654 740.193 60.443 L 717.002 153.328 C 717.002 153.328 711.965 181.735 693.652 180.532 L 642.646 180.532 C 642.646 180.532 621.608 178.432 625.313 160.859" style="fill:#ffffff;fill-opacity:1;fill-rule:nonzero;stroke:none" id="path48"/>
      <path d="M 556.195 174.25 L 582.767 69.209 C 583.187 67.549 581.938 65.93 580.225 65.918 L 571.246 65.851 C 569.513 65.838 568.259 64.185 568.716 62.512 L 578.277 27.44 C 578.592 26.289 579.641 25.49 580.834 25.495 L 649.597 25.7 C 651.26 25.705 652.506 27.228 652.182 28.858 L 645.11 64.375 C 644.865 65.608 643.784 66.5 642.525 66.502 L 630.697 66.537 C 629.496 66.54 628.449 67.351 628.147 68.512 L 599.418 178.592 C 599.111 179.774 598.037 180.588 596.818 180.568 L 560.88 180.568 C 557.921 180.518 555.471 177.117 556.195 174.25" style="fill:#ffffff;fill-opacity:1;fill-rule:nonzero;stroke:none" id="path52"/>
      <path d="M 456.996 126.626 L 492.573 126.983 C 495.015 127.006 496.908 129.131 496.628 131.555 C 496.188 135.403 495.891 140.278 497.257 140.058 C 497.257 140.058 501.125 144.011 502.184 125.08 C 502.261 123.66 501.175 122.424 499.754 122.346 L 460.275 120.184 C 458.642 120.094 457.506 118.521 457.933 116.942 L 477.44 44.903 C 477.44 44.903 480.691 25.089 507.063 25.089 L 539.471 25.089 C 539.538 25.089 539.606 25.086 539.676 25.081 C 541.476 24.924 570.2 22.806 564.587 48.489 L 558.341 77.034 C 558.079 78.232 557.01 79.076 555.784 79.056 L 518.912 78.427 C 517.321 78.402 516.153 76.949 516.44 75.383 C 517.129 71.627 517.808 65.824 515.094 67.138 C 515.094 67.138 513.83 63.399 510.627 80.275 C 510.33 81.836 511.501 83.311 513.089 83.349 L 552.368 84.293 C 553.637 84.323 554.518 85.559 554.136 86.767 L 538.524 157.393 C 538.524 157.393 535.862 180.227 516.81 180.569 L 465.644 180.569 C 465.484 180.569 464.607 180.599 464.45 180.569 C 461.726 180.042 436.597 172.875 454.569 128.249 C 454.964 127.268 455.938 126.616 456.996 126.626" style="fill:#ffffff;fill-opacity:1;fill-rule:nonzero;stroke:none" id="path56"/>
      <path d="M 350.354 176.933 L 387.898 26.667 C 388.185 25.52 389.209 24.714 390.39 24.701 L 441.865 24.16 C 441.865 24.16 480.668 23.026 468.832 57.813 L 438.075 177.09 C 437.745 178.378 436.212 180.581 434.881 180.581 L 396.947 180.581 C 395.909 180.581 394.608 178.298 394.867 177.292 L 422.808 68.453 C 422.808 68.453 422.45 65.584 421.374 68.693 L 393.219 176.76 C 392.835 178.244 391.307 180.581 389.776 180.581 L 352.319 180.581 C 351.091 180.581 350.057 178.124 350.354 176.933" style="fill:#ffffff;fill-opacity:1;fill-rule:nonzero;stroke:none" id="path60"/>
      <path d="M 303.463 176.848 L 339.936 27.171 C 340.233 25.948 341.33 25.089 342.586 25.089 L 382.509 25.089 C 383.67 25.089 384.519 26.18 384.237 27.303 L 346.558 177.172 C 346.196 178.611 345.327 180.581 343.844 180.581 L 305.776 180.581 C 304.325 180.581 303.119 178.259 303.463 176.848" style="fill:#ffffff;fill-opacity:1;fill-rule:nonzero;stroke:none" id="path64"/>
      <path d="M 211.497 180.582 C 209.804 180.582 207.916 178.025 208.331 176.384 L 240.753 48.11 C 240.753 48.11 244.01 25.09 272.312 25.09 L 303.396 25.09 C 303.491 25.09 303.573 25.085 303.666 25.075 C 305.98 24.797 341.492 21.187 327.798 62.396 C 327.783 62.449 327.765 62.501 327.753 62.554 L 299.376 177.028 C 299.138 178.522 297.645 180.582 296.134 180.582 L 258.358 180.582 C 256.667 180.582 255.132 178.027 255.541 176.387 L 267.475 128.837 C 267.475 128.837 267.485 125.353 265.61 128.822 L 252.964 177.67 C 252.667 178.819 251.334 180.582 250.15 180.582 L 211.497 180.582 Z" style="fill:#ffffff;fill-opacity:1;fill-rule:nonzero;stroke:none" id="path68"/>
      <path d="M 113.564 178.225 L 149.417 25.963 C 149.537 25.452 149.997 25.089 150.521 25.089 L 202.755 25.089 C 202.755 25.089 241.223 21.951 234.369 52.872 C 228.328 80.126 225.137 92.292 224.827 93.29 C 224.812 93.338 224.805 93.373 224.795 93.425 C 224.565 94.784 220.64 116.631 204.878 119.64 C 204.271 119.755 203.847 120.307 203.947 120.918 L 213.356 178.304 C 213.468 178.994 212.834 180.582 212.135 180.582 L 172.049 180.582 C 169.829 180.587 167.361 178.067 167.062 175.87 L 165.566 164.895 C 165.399 163.679 163.688 163.557 163.351 164.738 L 160.107 176.087 C 159.511 178.177 157.725 180.582 155.553 180.582 L 114.508 180.582 C 113.779 180.582 113.396 178.936 113.564 178.225" style="fill:#ffffff;fill-opacity:1;fill-rule:nonzero;stroke:none" id="path72"/>
      <path d="M 18.078 176.613 L 56.573 27.041 C 56.855 25.945 57.844 25.178 58.976 25.178 L 114.693 25.178 C 114.693 25.178 149.333 21.393 141.762 54.107 C 134.643 84.872 134.83 84.113 134.83 84.113 C 134.83 84.113 131.943 98.479 122.767 102.172 C 121.363 102.739 120.662 104.339 121.403 105.658 C 123.376 109.156 126.342 115.986 123.236 129.897 C 118.926 149.197 120.424 142.355 118.409 149.267 C 118.339 149.499 116.039 156.993 115.745 157.662 C 114.271 160.994 111.64 181.66 88.369 180.581 L 20.31 180.581 C 18.69 180.581 17.673 178.181 18.078 176.613" style="fill:#ffffff;fill-opacity:1;fill-rule:nonzero;stroke:none" id="path76"/>
    </g>
    <g id="inner_letters">
      <path d="M 24.932 172.415 L 62.229 31.196 L 119.29 31.196 C 119.29 31.196 144.156 28.327 136.825 56.38 C 129.491 84.432 130.767 80.287 130.767 80.287 C 130.767 80.287 127.898 99.734 107.813 100.051 C 107.813 100.051 123.752 105.79 118.973 125.554 C 114.191 145.319 112.278 152.331 112.278 152.331 C 112.278 152.331 109.089 174.088 85.499 172.415 L 24.932 172.415 Z" style="fill:#000000;fill-opacity:1;fill-rule:nonzero;stroke:none" id="path80"/>
      <path d="M 119.291 172.415 L 155.314 31.196 L 207.91 31.196 C 207.91 31.196 234.689 28.327 228.951 54.467 C 223.213 80.606 219.707 89.851 219.707 89.851 C 219.707 89.851 218.111 114.078 196.117 116.31 L 206.317 172.415 L 171.89 173.406 L 166.151 133.205 L 155.631 172.415 L 119.291 172.415 Z" style="fill:#000000;fill-opacity:1;fill-rule:nonzero;stroke:none" id="path84"/>
      <path d="M 215.562 172.415 L 245.527 52.234 C 245.527 52.234 248.749 31.196 276.769 31.196 L 307.69 31.196 C 307.69 31.196 332.674 31.196 322.034 63.391 L 294.938 172.415 L 260.83 172.415 L 272.623 123.322 C 272.623 123.322 268.798 112.804 262.742 123.642 L 249.033 172.415 L 215.562 172.415 Z" style="fill:#000000;fill-opacity:1;fill-rule:nonzero;stroke:none" id="path88"/>
      <path d="M 308.646 172.415 L 343.073 31.196 L 378.457 31.196 L 342.436 172.415 L 308.646 172.415 Z" style="fill:#000000;fill-opacity:1;fill-rule:nonzero;stroke:none" id="path92"/>
      <path d="M 356.462 172.415 L 392.166 31.196 L 447.634 30.659 C 447.634 30.659 472.178 31.196 464.53 58.612 L 434.882 172.415 L 399.817 172.415 L 427.55 62.435 C 427.55 62.435 425.001 54.786 418.943 62.435 L 390.253 172.415 L 356.462 172.415 Z" style="fill:#000000;fill-opacity:1;fill-rule:nonzero;stroke:none" id="path96"/>
      <path d="M 458.472 132.887 L 491.004 132.887 C 491.004 132.887 488.225 145.637 497.257 146.276 C 497.257 146.276 506.609 149.145 509.158 119.817 L 462.934 116.948 L 481.106 49.366 C 481.106 49.366 483.053 31.197 509.158 31.197 L 541.356 31.197 C 541.356 31.197 564.626 27.689 558.888 51.915 L 553.787 73.593 L 520.792 73.276 C 520.792 73.276 525.417 57.017 514.577 58.61 C 514.577 58.61 508.861 54.762 504.057 86.982 L 548.687 88.685 L 534.022 150.738 C 534.022 150.738 531.188 172.416 518.722 172.416 L 467.397 172.416 C 467.397 172.416 443.489 173.689 458.472 132.887" style="fill:#000000;fill-opacity:1;fill-rule:nonzero;stroke:none" id="path100"/>
      <path d="M 562.076 172.42 L 589.809 59.885 L 574.509 59.885 L 582.477 31.018 L 646.233 31.196 L 640.178 60.205 L 623.919 59.885 L 594.59 172.415 L 562.076 172.42 Z" style="fill:#000000;fill-opacity:1;fill-rule:nonzero;stroke:none" id="path104"/>
      <path d="M 631.569 157.114 L 657.072 53.828 C 657.072 53.828 663.163 31.195 684.168 31.195 L 720.509 31.195 C 720.509 31.195 742.186 32.79 733.898 62.756 L 712.54 148.189 C 712.54 148.189 707.916 173.452 693.412 172.416 L 642.726 172.416 C 642.726 172.416 628.063 171.315 631.569 157.114" style="fill:#000000;fill-opacity:1;fill-rule:nonzero;stroke:none" id="path108"/>
      <path d="M 720.19 172.415 L 756.53 31.196 L 810.086 31.196 C 810.086 31.196 835.709 31.873 829.214 57.016 L 819.967 95.589 C 819.967 95.589 817.098 112.804 797.336 117.266 L 808.173 172.415 L 772.469 172.775 L 766.094 132.569 L 756.53 172.775 L 720.19 172.415 Z" style="fill:#000000;fill-opacity:1;fill-rule:nonzero;stroke:none" id="path112"/>
      <path d="M 814.868 172.774 L 851.528 31.018 L 949.075 31.018 C 949.075 31.018 976.488 31.515 968.2 64.669 L 942.06 172.774 L 908.589 172.774 L 932.816 68.175 C 932.816 68.175 929.31 55.422 921.339 68.492 L 895.839 172.414 L 862.685 172.414 L 889.144 67.855 C 889.144 67.855 884.362 53.829 876.711 67.218 L 849.615 172.774 L 814.868 172.774 Z" style="fill:#000000;fill-opacity:1;fill-rule:nonzero;stroke:none" id="path116"/>
    </g>
    <g id="letter_holes">
      <path d="M 68.605 144.044 L 76.256 115.991 C 76.256 115.991 86.457 115.035 84.224 123.959 L 80.399 138.305 C 80.399 138.305 77.849 147.869 68.605 144.044" style="fill:#ffffff;fill-opacity:1;fill-rule:nonzero;stroke:none" id="path120"/>
      <path d="M 90.601 57.814 L 82.95 85.866 C 92.194 89.692 94.746 80.128 94.746 80.128 C 94.746 80.128 106.54 52.872 90.601 57.814" style="fill:#ffffff;fill-opacity:1;fill-rule:nonzero;stroke:none" id="path124"/>
      <path d="M 175.874 85.582 L 183.525 57.53 C 183.525 57.53 193.726 56.573 191.493 65.498 L 187.668 79.844 C 187.668 79.844 185.118 89.408 175.874 85.582" style="fill:#ffffff;fill-opacity:1;fill-rule:nonzero;stroke:none" id="path128"/>
      <path d="M 777.411 87.301 L 785.062 59.249 C 785.062 59.249 795.263 58.292 793.031 67.217 L 789.205 81.563 C 789.205 81.563 786.656 91.127 777.411 87.301" style="fill:#ffffff;fill-opacity:1;fill-rule:nonzero;stroke:none" id="path132"/>
      <path d="M 671.417 142.864 L 689.905 62.624 C 689.905 62.624 695.007 54.232 698.833 62.624 L 679.068 142.864 C 679.068 142.864 675.242 151.257 671.417 142.864" style="fill:#ffffff;fill-opacity:1;fill-rule:nonzero;stroke:none" id="path136"/>
      <path d="M 272.942 86.77 L 278.681 60.842 C 278.681 60.842 281.867 53.191 287.288 60.842 L 281.867 86.77 L 272.942 86.77 Z" style="fill:#ffffff;fill-opacity:1;fill-rule:nonzero;stroke:none" id="path140"/>
    </g>
  </g>
</svg>